<?xml version="1.0" encoding="UTF-8" standalone="no"?>
<!-- Generator: Adobe Illustrator 22.0.1, SVG Export Plug-In . SVG Version: 6.00 Build 0)  -->

<svg
   xmlns:dc="http://purl.org/dc/elements/1.1/"
   xmlns:cc="http://creativecommons.org/ns#"
   xmlns:rdf="http://www.w3.org/1999/02/22-rdf-syntax-ns#"
   xmlns:svg="http://www.w3.org/2000/svg"
   xmlns="http://www.w3.org/2000/svg"
   xmlns:xlink="http://www.w3.org/1999/xlink"
   xmlns:sodipodi="http://sodipodi.sourceforge.net/DTD/sodipodi-0.dtd"
   xmlns:inkscape="http://www.inkscape.org/namespaces/inkscape"
   version="1.1"
   id="Calque_1"
   x="0px"
   y="0px"
   viewBox="0 0 1366 768"
   style="enable-background:new 0 0 1366 768;"
   xml:space="preserve"
   sodipodi:docname="Poteaux.svg"
   inkscape:version="0.92.3 (2405546, 2018-03-11)"><metadata
   id="metadata4585"><rdf:RDF><cc:Work
       rdf:about=""><dc:format>image/svg+xml</dc:format><dc:type
         rdf:resource="http://purl.org/dc/dcmitype/StillImage" /></cc:Work></rdf:RDF></metadata><defs
   id="defs4583" /><sodipodi:namedview
   pagecolor="#ffffff"
   bordercolor="#666666"
   borderopacity="1"
   objecttolerance="10"
   gridtolerance="10"
   guidetolerance="10"
   inkscape:pageopacity="0"
   inkscape:pageshadow="2"
   inkscape:window-width="1850"
   inkscape:window-height="1016"
   id="namedview4581"
   showgrid="false"
   inkscape:zoom="9.8333333"
   inkscape:cx="603.16658"
   inkscape:cy="179.54419"
   inkscape:window-x="70"
   inkscape:window-y="27"
   inkscape:window-maximized="1"
   inkscape:current-layer="Calque_1" />
<style
   type="text/css"
   id="style3242">
	.st0{opacity:0.5;fill:none;stroke:#808080;stroke-miterlimit:10;}
	.st1{stroke:#000000;stroke-width:0.5;stroke-miterlimit:10;}
	.st2{fill:none;stroke:#000000;stroke-width:0.5;stroke-miterlimit:10;}
	.st3{fill:#FF0000;}
	.st4{fill:none;stroke:#FF0000;stroke-width:0.5;stroke-miterlimit:10;}
	.st5{fill:none;}
	.st6{font-family:'Helvetica-Bold';}
	.st7{font-size:12px;}
	.st8{fill:#FFB400;}
	.st9{fill:#FFB400;stroke:#FF0000;stroke-width:0.5;stroke-miterlimit:10;}
	.st10{font-size:15px;}
	.st11{opacity:0.7;fill:none;stroke:#FF0000;stroke-width:2;stroke-miterlimit:10;}
	.st12{fill:none;stroke:#000000;stroke-miterlimit:10;}
	.st13{font-family:'Helvetica';}
	.st14{fill:none;stroke:#808080;stroke-miterlimit:10;}
</style>
<g
   id="g3258">
	<g
   id="g3246">
		<line
   class="st0"
   x1="754.5"
   y1="532.4"
   x2="296.8"
   y2="531.7"
   id="line3244" />
	</g>
	<line
   class="st0"
   x1="754.7"
   y1="476.1"
   x2="302.1"
   y2="475.9"
   id="line3248" />
	<line
   class="st0"
   x1="754.4"
   y1="420.2"
   x2="302.5"
   y2="419.9"
   id="line3250" />
	<line
   class="st0"
   x1="755.2"
   y1="587.3"
   x2="302.6"
   y2="587.6"
   id="line3252" />
	<line
   class="st0"
   x1="755.8"
   y1="364.2"
   x2="303.9"
   y2="364"
   id="line3254" />
	<line
   class="st0"
   x1="755.9"
   y1="308.4"
   x2="304"
   y2="308.2"
   id="line3256" />
</g>
<g
   id="g3292">
	<g
   id="g3290">
		<rect
   x="314.1"
   y="293"
   class="st1"
   width="12.1"
   height="294.2"
   id="rect3260" />
		<rect
   x="340.9"
   y="382.4"
   class="st1"
   width="12.1"
   height="204.8"
   id="rect3262" />
		<rect
   x="367.7"
   y="475.5"
   class="st1"
   width="12.1"
   height="111.7"
   id="rect3264" />
		<rect
   x="394.5"
   y="536"
   class="st1"
   width="12.1"
   height="51.2"
   id="rect3266" />
		<rect
   x="421.3"
   y="451.3"
   class="st1"
   width="12.1"
   height="135.9"
   id="rect3268" />
		<rect
   x="448.1"
   y="335.8"
   class="st1"
   width="12.1"
   height="251.4"
   id="rect3270" />
		<rect
   x="474.8"
   y="461.5"
   class="st1"
   width="12.1"
   height="125.7"
   id="rect3272" />
		<rect
   x="501.6"
   y="405.7"
   class="st1"
   width="12.1"
   height="181.6"
   id="rect3274" />
		<rect
   x="555.7"
   y="475.5"
   class="st1"
   width="12.1"
   height="111.7"
   id="rect3276" />
		<rect
   x="582.5"
   y="354.5"
   class="st1"
   width="12.1"
   height="232.8"
   id="rect3278" />
		<rect
   x="635.9"
   y="438.3"
   class="st1"
   width="12.1"
   height="149"
   id="rect3280" />
		<rect
   x="662.7"
   y="470.9"
   class="st1"
   width="12.1"
   height="116.4"
   id="rect3282" />
		<rect
   x="689.5"
   y="416.9"
   class="st1"
   width="12.1"
   height="170.4"
   id="rect3284" />
		<rect
   x="716.3"
   y="422.4"
   class="st1"
   width="12.1"
   height="164.8"
   id="rect3286" />
		<rect
   x="743.1"
   y="416.9"
   class="st1"
   width="12.1"
   height="170.4"
   id="rect3288" />
	</g>
</g>
<image
   sodipodi:absref="/mnt/2275bc30-0021-4916-bc59-8090f5c3fef9/Documents/2018-2019/2ème semestre/koh-data/6305232869E35E7E.jpeg"
   xlink:href="6305232869E35E7E.jpeg"
   id="image3294"
   transform="matrix(0.4016 0 0 0.4016 940 63)"
   height="630"
   width="1200"
   style="overflow:visible;enable-background:new    ;">
</image>
<g
   id="g3332">
	<ellipse
   class="st1"
   cx="889"
   cy="134.5"
   rx="4.5"
   ry="6"
   id="ellipse3296" />
	<g
   id="g3302">
		<path
   d="M891.9,171.5h-5.5c-2.1,0-4.1-2.5-4.4-5.5l-2-19.9c-0.3-3,1.9-5.5,5-5.5h7.9c3,0,5.3,2.5,5.1,5.5l-1.7,19.9    C896,169,894.1,171.5,891.9,171.5z"
   id="path3298" />
		<path
   class="st2"
   d="M891.9,171.5h-5.5c-2.1,0-4.1-2.5-4.4-5.5l-2-19.9c-0.3-3,1.9-5.5,5-5.5h7.9c3,0,5.3,2.5,5.1,5.5l-1.7,19.9    C896,169,894.1,171.5,891.9,171.5z"
   id="path3300" />
	</g>
	<g
   id="g3308">
		<path
   d="M885.4,208.5h-0.7c-0.7,0-1.3-0.9-1.4-2l-0.8-38.9c0-1.1,0.9-2,2-2h1.1c1.1,0,2,0.9,2,2l-0.7,38.9    C886.7,207.6,886.1,208.5,885.4,208.5z"
   id="path3304" />
		<path
   class="st2"
   d="M885.4,208.5h-0.7c-0.7,0-1.3-0.9-1.4-2l-0.8-38.9c0-1.1,0.9-2,2-2h1.1c1.1,0,2,0.9,2,2l-0.7,38.9    C886.7,207.6,886.1,208.5,885.4,208.5z"
   id="path3306" />
	</g>
	<g
   id="g3314">
		<path
   d="M893.4,208.5h-0.7c-0.7,0-1.3-0.9-1.4-2l-0.8-38.9c0-1.1,0.9-2,2-2h1.1c1.1,0,2,0.9,2,2l-0.7,38.9    C894.7,207.6,894.1,208.5,893.4,208.5z"
   id="path3310" />
		<path
   class="st2"
   d="M893.4,208.5h-0.7c-0.7,0-1.3-0.9-1.4-2l-0.8-38.9c0-1.1,0.9-2,2-2h1.1c1.1,0,2,0.9,2,2l-0.7,38.9    C894.7,207.6,894.1,208.5,893.4,208.5z"
   id="path3312" />
	</g>
	<g
   id="g3320">
		<polygon
   class="st3"
   points="888.3,177.5 881.9,177.5 880.5,165.5 889.5,165.5   "
   id="polygon3316" />
		<polygon
   class="st4"
   points="888.3,177.5 881.9,177.5 880.5,165.5 889.5,165.5   "
   id="polygon3318" />
	</g>
	<g
   id="g3326">
		<polygon
   class="st3"
   points="896.3,177.5 889.9,177.5 888.5,165.5 897.5,165.5   "
   id="polygon3322" />
		<polygon
   class="st4"
   points="896.3,177.5 889.9,177.5 888.5,165.5 897.5,165.5   "
   id="polygon3324" />
	</g>
	<path
   class="st1"
   d="M878.3,173.5L878.3,173.5c-1.2-0.2-2-1.2-1.8-2.3l3.7-26.8c0.2-1.1,1.2-1.9,2.3-1.7h0.1   c1.1,0.2,1.9,1.2,1.7,2.3l-3.7,26.8C880.4,172.9,879.4,173.6,878.3,173.5z"
   id="path3328" />
	<path
   class="st1"
   d="M899.7,173.5L899.7,173.5c1.2-0.2,2-1.2,1.8-2.3l-3.7-26.8c-0.2-1.1-1.2-1.9-2.3-1.7h-0.1   c-1.1,0.2-1.9,1.2-1.7,2.3l3.7,26.8C897.6,172.9,898.6,173.6,899.7,173.5z"
   id="path3330" />
</g>
<ellipse
   class="st1"
   cx="320.2"
   cy="232"
   rx="3.7"
   ry="4.9"
   id="ellipse3334" />
<g
   id="g3340">
	<path
   d="M322.5,262.1H318c-1.7,0-3.3-2-3.6-4.5l-1.6-16.2c-0.2-2.4,1.5-4.5,4.1-4.5h6.4c2.4,0,4.3,2,4.2,4.5l-1.4,16.2   C325.9,260.1,324.3,262.1,322.5,262.1z"
   id="path3336" />
	<path
   class="st2"
   d="M322.5,262.1H318c-1.7,0-3.3-2-3.6-4.5l-1.6-16.2c-0.2-2.4,1.5-4.5,4.1-4.5h6.4c2.4,0,4.3,2,4.2,4.5l-1.4,16.2   C325.9,260.1,324.3,262.1,322.5,262.1z"
   id="path3338" />
</g>
<g
   id="g3346">
	<path
   d="M317.2,292.3h-0.6c-0.6,0-1.1-0.7-1.1-1.6l-0.7-31.7c0-0.9,0.7-1.6,1.6-1.6h0.9c0.9,0,1.6,0.7,1.6,1.6l-0.6,31.7   C318.3,291.5,317.8,292.3,317.2,292.3z"
   id="path3342" />
	<path
   class="st2"
   d="M317.2,292.3h-0.6c-0.6,0-1.1-0.7-1.1-1.6l-0.7-31.7c0-0.9,0.7-1.6,1.6-1.6h0.9c0.9,0,1.6,0.7,1.6,1.6   l-0.6,31.7C318.3,291.5,317.8,292.3,317.2,292.3z"
   id="path3344" />
</g>
<g
   id="g3352">
	<path
   d="M323.7,292.3h-0.6c-0.6,0-1.1-0.7-1.1-1.6l-0.7-31.7c0-0.9,0.7-1.6,1.6-1.6h0.9c0.9,0,1.6,0.7,1.6,1.6l-0.6,31.7   C324.8,291.5,324.3,292.3,323.7,292.3z"
   id="path3348" />
	<path
   class="st2"
   d="M323.7,292.3h-0.6c-0.6,0-1.1-0.7-1.1-1.6l-0.7-31.7c0-0.9,0.7-1.6,1.6-1.6h0.9c0.9,0,1.6,0.7,1.6,1.6   l-0.6,31.7C324.8,291.5,324.3,292.3,323.7,292.3z"
   id="path3350" />
</g>
<g
   id="g3356">
	<polygon
   class="st3"
   points="319.5,268 314.3,268 313.1,257.3 320.5,257.3  "
   id="polygon3354" />
</g>
<g
   id="g3368">
	<polyline
   class="st3"
   points="326.1,268 320.9,268 319.7,257.3 327.1,257.3  "
   id="polyline3358" />
	<path
   class="st4"
   d="M320.9,267"
   id="path3360" />
	<path
   class="st4"
   d="M326.1,267"
   id="path3362" />
	<path
   class="st4"
   d="M327.1,257.2"
   id="path3364" />
	<path
   class="st4"
   d="M319.7,257.2"
   id="path3366" />
</g>
<path
   class="st1"
   d="M311.4,263.8L311.4,263.8c-1-0.2-1.6-1-1.5-1.9l3-21.8c0.2-0.9,1-1.5,1.9-1.4h0.1c0.9,0.2,1.5,1,1.4,1.9  l-3,21.8C313.1,263.3,312.3,263.8,311.4,263.8z"
   id="path3370" />
<path
   class="st1"
   d="M328.9,263.8L328.9,263.8c1-0.2,1.6-1,1.5-1.9l-3-21.8c-0.2-0.9-1-1.5-1.9-1.4h-0.1c-0.9,0.2-1.5,1-1.4,1.9  l3,21.8C327.2,263.3,328,263.8,328.9,263.8z"
   id="path3372" />
<g
   id="g3378">
	<g
   id="g3376">
		<path
   d="M326.8,207.7c-0.1-0.4-0.2-0.8-0.4-1.2c-0.2-0.4-0.4-0.8-0.6-1.2c-0.5-0.7-1.1-1.4-1.9-1.9c-0.7-0.5-1.5-0.8-2.4-1    c-0.9-0.2-1.8-0.2-2.6,0c-0.9,0.2-1.7,0.5-2.4,1c-0.7,0.5-1.4,1.1-1.9,1.9c-0.5,0.7-0.8,1.5-1,2.4c-0.2,0.9-0.2,1.8,0,2.6    c0.2,0.9,0.5,1.7,1,2.4c0.6,1,1.5,1.8,2.6,2.3c0.6,0.3,1.3,0.5,2,0.7c0.1,0,0.2,0.1,0.2,0.3v1.9c0,0.1-0.1,0.3-0.3,0.3h-2.8    c-0.2,0-0.4,0.1-0.5,0.2c-0.3,0.3-0.3,0.7,0,1l0,0c0.1,0.1,0.2,0.1,0.2,0.2c0.1,0,0.2,0.1,0.3,0.1h2.8c0.1,0,0.1,0,0.2,0.1    c0,0,0.1,0.1,0.1,0.2v2.8c0,0.1,0,0.2,0.1,0.3c0,0.1,0.1,0.2,0.2,0.2c0.1,0.1,0.2,0.1,0.2,0.2c0.2,0.1,0.4,0.1,0.5,0    c0.1,0,0.2-0.1,0.2-0.2c0.1-0.1,0.1-0.2,0.2-0.2c0-0.1,0.1-0.2,0.1-0.3v-2.8c0-0.1,0-0.1,0.1-0.2c0,0,0.1-0.1,0.2-0.1h2.8    c0.1,0,0.2,0,0.3-0.1c0.1,0,0.2-0.1,0.2-0.2c0.1-0.1,0.1-0.2,0.2-0.2c0.1-0.2,0.1-0.4,0-0.5c0,0,0-0.1-0.1-0.1l-0.1-0.1    c-0.1-0.1-0.3-0.2-0.5-0.2h-2.8c-0.1,0-0.1,0-0.2-0.1c0,0-0.1-0.1-0.1-0.2V216v-0.1c0-0.1,0-0.1,0.1-0.2c0,0,0.1-0.1,0.2-0.1    c0.7-0.1,1.4-0.3,2-0.6c1.4-0.7,2.6-1.9,3.2-3.4c0.2-0.4,0.3-0.8,0.4-1.3C327,209.4,327,208.5,326.8,207.7z M325.4,210L325.4,210    c-0.6,2.9-3.4,4.7-6.3,4.1c-2.9-0.6-4.7-3.4-4.1-6.3s3.4-4.7,6.3-4.1c2.5,0.5,4.2,2.7,4.2,5.2C325.5,209.3,325.5,209.7,325.4,210z    "
   id="path3374" />
	</g>
</g>
<g
   id="g3380">
</g>
<g
   id="g3382">
</g>
<g
   id="g3384">
</g>
<g
   id="g3386">
</g>
<g
   id="g3388">
</g>
<g
   id="g3390">
</g>
<g
   id="g3392">
</g>
<g
   id="g3394">
</g>
<g
   id="g3396">
</g>
<g
   id="g3398">
</g>
<g
   id="g3400">
</g>
<g
   id="g3402">
</g>
<g
   id="g3404">
</g>
<g
   id="g3406">
</g>
<g
   id="g3408">
</g>
<g
   id="g3412">
	<path
   d="M934.4,398.6c0-0.1,0-0.2-0.1-0.2c0,0,0,0,0,0c0,0,0,0,0,0c0-0.1-0.1-0.1-0.1-0.2c0,0,0,0,0,0c-0.1-0.1-0.1-0.1-0.2-0.2   c0,0,0,0,0,0c-0.1,0-0.1-0.1-0.2-0.1c0,0,0,0-0.1,0c-0.1,0-0.2,0-0.2,0H927c-0.5,0-0.9,0.4-0.9,0.9c0,0.5,0.4,0.9,0.9,0.9h4.2   l-5.5,5.5c-1.5-1.2-3.3-1.8-5.2-1.8c-4.6,0-8.3,3.7-8.3,8.3c0,4.6,3.7,8.3,8.3,8.3c4.6,0,8.3-3.7,8.3-8.3c0-1.9-0.6-3.7-1.8-5.2   l5.5-5.5v4.2c0,0.5,0.4,0.9,0.9,0.9c0.5,0,0.9-0.4,0.9-0.9v-6.5C934.4,398.7,934.4,398.7,934.4,398.6   C934.4,398.7,934.4,398.7,934.4,398.6z M920.5,418.2c-3.6,0-6.5-2.9-6.5-6.5c0-3.6,2.9-6.5,6.5-6.5c1.7,0,3.4,0.7,4.6,1.9   c1.2,1.2,1.9,2.9,1.9,4.6C927,415.3,924.1,418.2,920.5,418.2z"
   id="path3410" />
</g>
<rect
   x="172.6"
   y="127.8"
   class="st5"
   width="40.2"
   height="20.2"
   id="rect3414" />
<text
   transform="matrix(1 0 0 1 172.575 136.3779)"
   class="st6 st7"
   id="text3416">Amel</text>

<ellipse
   class="st1"
   cx="346.9"
   cy="322.4"
   rx="3.7"
   ry="4.9"
   id="ellipse3418" />
<g
   id="g3424">
	<path
   d="M349.3,352.5h-4.5c-1.7,0-3.3-2-3.6-4.5l-1.6-16.2c-0.2-2.4,1.5-4.5,4.1-4.5h6.4c2.4,0,4.3,2,4.2,4.5l-1.4,16.2   C352.6,350.5,351.1,352.5,349.3,352.5z"
   id="path3420" />
	<path
   class="st2"
   d="M349.3,352.5h-4.5c-1.7,0-3.3-2-3.6-4.5l-1.6-16.2c-0.2-2.4,1.5-4.5,4.1-4.5h6.4c2.4,0,4.3,2,4.2,4.5   l-1.4,16.2C352.6,350.5,351.1,352.5,349.3,352.5z"
   id="path3422" />
</g>
<g
   id="g3430">
	<path
   d="M344,382.6h-0.6c-0.6,0-1.1-0.7-1.1-1.6l-0.7-31.7c0-0.9,0.7-1.6,1.6-1.6h0.9c0.9,0,1.6,0.7,1.6,1.6l-0.6,31.7   C345.1,381.9,344.6,382.6,344,382.6z"
   id="path3426" />
	<path
   class="st2"
   d="M344,382.6h-0.6c-0.6,0-1.1-0.7-1.1-1.6l-0.7-31.7c0-0.9,0.7-1.6,1.6-1.6h0.9c0.9,0,1.6,0.7,1.6,1.6l-0.6,31.7   C345.1,381.9,344.6,382.6,344,382.6z"
   id="path3428" />
</g>
<g
   id="g3436">
	<path
   d="M350.5,382.6H350c-0.6,0-1.1-0.7-1.1-1.6l-0.7-31.7c0-0.9,0.7-1.6,1.6-1.6h0.9c0.9,0,1.6,0.7,1.6,1.6l-0.6,31.7   C351.6,381.9,351.1,382.6,350.5,382.6z"
   id="path3432" />
	<path
   class="st2"
   d="M350.5,382.6H350c-0.6,0-1.1-0.7-1.1-1.6l-0.7-31.7c0-0.9,0.7-1.6,1.6-1.6h0.9c0.9,0,1.6,0.7,1.6,1.6   l-0.6,31.7C351.6,381.9,351.1,382.6,350.5,382.6z"
   id="path3434" />
</g>
<g
   id="g3440">
	<polygon
   class="st8"
   points="346.3,358.4 341.1,358.4 339.9,347.7 347.3,347.7  "
   id="polygon3438" />
</g>
<g
   id="g3452">
	<polyline
   class="st8"
   points="352.9,358.4 347.7,358.4 346.5,347.7 353.9,347.7  "
   id="polyline3442" />
	<path
   class="st9"
   d="M347.7,357.4"
   id="path3444" />
	<path
   class="st9"
   d="M352.9,357.4"
   id="path3446" />
	<path
   class="st9"
   d="M353.9,347.6"
   id="path3448" />
	<path
   class="st9"
   d="M346.5,347.6"
   id="path3450" />
</g>
<path
   class="st1"
   d="M338.2,354.1L338.2,354.1c-1-0.2-1.6-1-1.5-1.9l3-21.8c0.2-0.9,1-1.5,1.9-1.4h0.1c0.9,0.2,1.5,1,1.4,1.9  l-3,21.8C339.9,353.7,339.1,354.2,338.2,354.1z"
   id="path3454" />
<path
   class="st1"
   d="M355.7,354.1L355.7,354.1c1-0.2,1.6-1,1.5-1.9l-3-21.8c-0.2-0.9-1-1.5-1.9-1.4h-0.1c-0.9,0.2-1.5,1-1.4,1.9  l3,21.8C354,353.7,354.8,354.2,355.7,354.1z"
   id="path3456" />
<g
   id="g3462">
	<g
   id="g3460">
		<path
   d="M353.9,298.1c-0.1-0.4-0.2-0.8-0.4-1.2c-0.2-0.4-0.4-0.8-0.6-1.2c-0.5-0.7-1.1-1.4-1.9-1.9c-0.7-0.5-1.5-0.8-2.4-1    c-0.9-0.2-1.8-0.2-2.6,0c-0.9,0.2-1.7,0.5-2.4,1c-0.7,0.5-1.4,1.1-1.9,1.9c-0.5,0.7-0.8,1.5-1,2.4c-0.2,0.9-0.2,1.8,0,2.6    c0.2,0.9,0.5,1.7,1,2.4c0.6,1,1.5,1.8,2.6,2.3c0.6,0.3,1.3,0.5,2,0.7c0.1,0,0.2,0.1,0.2,0.3v1.9c0,0.1-0.1,0.3-0.3,0.3h-2.8    c-0.2,0-0.4,0.1-0.5,0.2c-0.3,0.3-0.3,0.7,0,1l0,0c0.1,0.1,0.2,0.1,0.2,0.2c0.1,0,0.2,0.1,0.3,0.1h2.8c0.1,0,0.1,0,0.2,0.1    c0,0,0.1,0.1,0.1,0.2v2.8c0,0.1,0,0.2,0.1,0.3c0,0.1,0.1,0.2,0.2,0.2c0.1,0.1,0.2,0.1,0.2,0.2c0.2,0.1,0.4,0.1,0.5,0    c0.1,0,0.2-0.1,0.2-0.2c0.1-0.1,0.1-0.2,0.2-0.2c0-0.1,0.1-0.2,0.1-0.3v-2.8c0-0.1,0-0.1,0.1-0.2c0,0,0.1-0.1,0.2-0.1h2.8    c0.1,0,0.2,0,0.3-0.1c0.1,0,0.2-0.1,0.2-0.2c0.1-0.1,0.1-0.2,0.2-0.2c0.1-0.2,0.1-0.4,0-0.5c0,0,0-0.1-0.1-0.1l-0.1-0.1    c-0.1-0.1-0.3-0.2-0.5-0.2h-2.8c-0.1,0-0.1,0-0.2-0.1c0,0-0.1-0.1-0.1-0.2v-1.8v-0.1c0-0.1,0-0.1,0.1-0.2c0,0,0.1-0.1,0.2-0.1    c0.7-0.1,1.4-0.3,2-0.6c1.4-0.7,2.6-1.9,3.2-3.4c0.2-0.4,0.3-0.8,0.4-1.3C354.1,299.9,354.1,299,353.9,298.1z M352.5,300.5    L352.5,300.5c-0.6,2.9-3.4,4.7-6.2,4.1c-2.9-0.6-4.7-3.4-4.1-6.2c0.6-2.9,3.4-4.7,6.2-4.1c2.5,0.5,4.2,2.7,4.2,5.2    C352.6,299.8,352.6,300.1,352.5,300.5z"
   id="path3458" />
	</g>
</g>
<g
   id="g3464">
</g>
<g
   id="g3466">
</g>
<g
   id="g3468">
</g>
<g
   id="g3470">
</g>
<g
   id="g3472">
</g>
<g
   id="g3474">
</g>
<g
   id="g3476">
</g>
<g
   id="g3478">
</g>
<g
   id="g3480">
</g>
<g
   id="g3482">
</g>
<g
   id="g3484">
</g>
<g
   id="g3486">
</g>
<g
   id="g3488">
</g>
<g
   id="g3490">
</g>
<g
   id="g3492">
</g>
<ellipse
   class="st1"
   cx="373.8"
   cy="415.2"
   rx="3.7"
   ry="4.9"
   id="ellipse3494" />
<g
   id="g3500">
	<path
   d="M376.1,445.3h-4.5c-1.7,0-3.3-2-3.6-4.5l-1.6-16.2c-0.2-2.4,1.5-4.5,4.1-4.5h6.4c2.4,0,4.3,2,4.1,4.5l-1.4,16.2   C379.4,443.3,377.9,445.3,376.1,445.3z"
   id="path3496" />
	<path
   class="st2"
   d="M376.1,445.3h-4.5c-1.7,0-3.3-2-3.6-4.5l-1.6-16.2c-0.2-2.4,1.5-4.5,4.1-4.5h6.4c2.4,0,4.3,2,4.1,4.5   l-1.4,16.2C379.4,443.3,377.9,445.3,376.1,445.3z"
   id="path3498" />
</g>
<g
   id="g3506">
	<path
   d="M370.8,475.4h-0.6c-0.6,0-1.1-0.7-1.1-1.6l-0.7-31.6c0-0.9,0.7-1.6,1.6-1.6h0.9c0.9,0,1.6,0.7,1.6,1.6l-0.6,31.6   C371.9,474.6,371.4,475.4,370.8,475.4z"
   id="path3502" />
	<path
   class="st2"
   d="M370.8,475.4h-0.6c-0.6,0-1.1-0.7-1.1-1.6l-0.7-31.6c0-0.9,0.7-1.6,1.6-1.6h0.9c0.9,0,1.6,0.7,1.6,1.6   l-0.6,31.6C371.9,474.6,371.4,475.4,370.8,475.4z"
   id="path3504" />
</g>
<g
   id="g3512">
	<path
   d="M377.3,475.4h-0.6c-0.6,0-1.1-0.7-1.1-1.6l-0.7-31.6c0-0.9,0.7-1.6,1.6-1.6h0.9c0.9,0,1.6,0.7,1.6,1.6l-0.6,31.6   C378.4,474.6,377.9,475.4,377.3,475.4z"
   id="path3508" />
	<path
   class="st2"
   d="M377.3,475.4h-0.6c-0.6,0-1.1-0.7-1.1-1.6l-0.7-31.6c0-0.9,0.7-1.6,1.6-1.6h0.9c0.9,0,1.6,0.7,1.6,1.6   l-0.6,31.6C378.4,474.6,377.9,475.4,377.3,475.4z"
   id="path3510" />
</g>
<g
   id="g3516">
	<polygon
   class="st8"
   points="373.1,451.2 367.9,451.2 366.7,440.5 374.1,440.5  "
   id="polygon3514" />
</g>
<g
   id="g3528">
	<polyline
   class="st8"
   points="379.7,451.2 374.5,451.2 373.3,440.5 380.7,440.5  "
   id="polyline3518" />
	<path
   class="st9"
   d="M374.5,450.2"
   id="path3520" />
	<path
   class="st9"
   d="M379.7,450.2"
   id="path3522" />
	<path
   class="st9"
   d="M380.7,440.4"
   id="path3524" />
	<path
   class="st9"
   d="M373.3,440.4"
   id="path3526" />
</g>
<path
   class="st1"
   d="M365.1,446.9L365.1,446.9c-1-0.2-1.6-1-1.5-1.9l3-21.8c0.2-0.9,1-1.5,1.9-1.4h0.1c0.9,0.2,1.5,1,1.4,1.9  l-3,21.8C366.8,446.4,365.9,447,365.1,446.9z"
   id="path3530" />
<path
   class="st1"
   d="M382.4,446.9L382.4,446.9c1-0.2,1.6-1,1.5-1.9l-3-21.8c-0.2-0.9-1-1.5-1.9-1.4H379c-0.9,0.2-1.5,1-1.4,1.9  l3,21.8C380.7,446.4,381.6,447,382.4,446.9z"
   id="path3532" />
<g
   id="g3538">
	<g
   id="g3536">
		<path
   d="M380.7,391c-0.1-0.4-0.2-0.8-0.4-1.2c-0.2-0.4-0.4-0.8-0.6-1.2c-0.5-0.7-1.1-1.4-1.8-1.9c-0.7-0.5-1.5-0.8-2.4-1    c-0.9-0.2-1.7-0.2-2.6,0c-0.9,0.2-1.7,0.5-2.4,1c-0.7,0.5-1.4,1.1-1.8,1.8c-0.5,0.7-0.8,1.5-1,2.4c-0.2,0.9-0.2,1.7,0,2.6    c0.2,0.9,0.5,1.7,1,2.4c0.6,1,1.5,1.7,2.6,2.3c0.6,0.3,1.3,0.5,2,0.7c0.1,0,0.2,0.1,0.2,0.3v1.9c0,0.1-0.1,0.3-0.3,0.3h-2.8    c-0.2,0-0.4,0.1-0.5,0.2c-0.3,0.3-0.3,0.7,0,1l0,0c0.1,0.1,0.1,0.1,0.2,0.2c0.1,0,0.2,0.1,0.3,0.1h2.8c0.1,0,0.1,0,0.2,0.1    c0,0,0.1,0.1,0.1,0.2v2.8c0,0.1,0,0.2,0.1,0.3c0,0.1,0.1,0.2,0.2,0.2c0.1,0.1,0.1,0.1,0.2,0.2c0.2,0.1,0.4,0.1,0.5,0    c0.1,0,0.2-0.1,0.2-0.2c0.1-0.1,0.1-0.1,0.2-0.2c0-0.1,0.1-0.2,0.1-0.3V403c0-0.1,0-0.1,0.1-0.2c0,0,0.1-0.1,0.2-0.1h2.8    c0.1,0,0.2,0,0.3-0.1c0.1,0,0.2-0.1,0.2-0.2c0.1-0.1,0.1-0.1,0.2-0.2c0.1-0.2,0.1-0.4,0-0.5c0,0,0-0.1-0.1-0.1l-0.1-0.1    c-0.1-0.1-0.3-0.2-0.5-0.2h-2.8c-0.1,0-0.1,0-0.2-0.1c0,0-0.1-0.1-0.1-0.2v-1.8v-0.1c0-0.1,0-0.1,0.1-0.2c0,0,0.1-0.1,0.2-0.1    c0.7-0.1,1.4-0.3,2-0.6c1.4-0.7,2.6-1.9,3.2-3.4c0.2-0.4,0.3-0.8,0.4-1.2C380.9,392.8,380.9,391.9,380.7,391z M379.3,393.3    L379.3,393.3c-0.6,2.9-3.4,4.7-6.2,4.1c-2.9-0.6-4.7-3.4-4.1-6.2c0.6-2.9,3.4-4.7,6.2-4.1c2.5,0.5,4.2,2.7,4.2,5.2    C379.4,392.7,379.4,393,379.3,393.3z"
   id="path3534" />
	</g>
</g>
<g
   id="g3540">
</g>
<g
   id="g3542">
</g>
<g
   id="g3544">
</g>
<g
   id="g3546">
</g>
<g
   id="g3548">
</g>
<g
   id="g3550">
</g>
<g
   id="g3552">
</g>
<g
   id="g3554">
</g>
<g
   id="g3556">
</g>
<g
   id="g3558">
</g>
<g
   id="g3560">
</g>
<g
   id="g3562">
</g>
<g
   id="g3564">
</g>
<g
   id="g3566">
</g>
<g
   id="g3568">
</g>
<ellipse
   class="st1"
   cx="400.2"
   cy="475.5"
   rx="3.7"
   ry="4.9"
   id="ellipse3570" />
<g
   id="g3576">
	<path
   d="M402.6,505.6h-4.5c-1.7,0-3.3-2-3.6-4.5l-1.6-16.2c-0.2-2.4,1.5-4.5,4.1-4.5h6.4c2.4,0,4.3,2,4.1,4.5l-1.4,16.2   C405.9,503.6,404.4,505.6,402.6,505.6z"
   id="path3572" />
	<path
   class="st2"
   d="M402.6,505.6h-4.5c-1.7,0-3.3-2-3.6-4.5l-1.6-16.2c-0.2-2.4,1.5-4.5,4.1-4.5h6.4c2.4,0,4.3,2,4.1,4.5   l-1.4,16.2C405.9,503.6,404.4,505.6,402.6,505.6z"
   id="path3574" />
</g>
<g
   id="g3582">
	<path
   d="M397.3,535.7h-0.6c-0.6,0-1.1-0.7-1.1-1.6l-0.7-31.6c0-0.9,0.7-1.6,1.6-1.6h0.9c0.9,0,1.6,0.7,1.6,1.6l-0.6,31.6   C398.4,535,397.9,535.7,397.3,535.7z"
   id="path3578" />
	<path
   class="st2"
   d="M397.3,535.7h-0.6c-0.6,0-1.1-0.7-1.1-1.6l-0.7-31.6c0-0.9,0.7-1.6,1.6-1.6h0.9c0.9,0,1.6,0.7,1.6,1.6   l-0.6,31.6C398.4,535,397.9,535.7,397.3,535.7z"
   id="path3580" />
</g>
<g
   id="g3588">
	<path
   d="M403.8,535.7h-0.6c-0.6,0-1.1-0.7-1.1-1.6l-0.7-31.6c0-0.9,0.7-1.6,1.6-1.6h0.9c0.9,0,1.6,0.7,1.6,1.6l-0.6,31.6   C404.9,535,404.4,535.7,403.8,535.7z"
   id="path3584" />
	<path
   class="st2"
   d="M403.8,535.7h-0.6c-0.6,0-1.1-0.7-1.1-1.6l-0.7-31.6c0-0.9,0.7-1.6,1.6-1.6h0.9c0.9,0,1.6,0.7,1.6,1.6   l-0.6,31.6C404.9,535,404.4,535.7,403.8,535.7z"
   id="path3586" />
</g>
<g
   id="g3592">
	<polygon
   class="st8"
   points="399.6,511.5 394.4,511.5 393.2,500.8 400.6,500.8  "
   id="polygon3590" />
</g>
<g
   id="g3604">
	<polyline
   class="st8"
   points="406.2,511.5 401,511.5 399.8,500.8 407.2,500.8  "
   id="polyline3594" />
	<path
   class="st9"
   d="M401,510.5"
   id="path3596" />
	<path
   class="st9"
   d="M406.2,510.5"
   id="path3598" />
	<path
   class="st9"
   d="M407.1,500.7"
   id="path3600" />
	<path
   class="st9"
   d="M399.8,500.7"
   id="path3602" />
</g>
<path
   class="st1"
   d="M391.5,507.2L391.5,507.2c-1-0.2-1.6-1-1.5-1.9l3-21.8c0.2-0.9,1-1.5,1.9-1.4h0.1c0.9,0.2,1.5,1,1.4,1.9  l-3,21.8C393.2,506.7,392.4,507.3,391.5,507.2z"
   id="path3606" />
<path
   class="st1"
   d="M408.9,507.2L408.9,507.2c1-0.2,1.6-1,1.5-1.9l-3-21.8c-0.2-0.9-1-1.5-1.9-1.4h-0.1c-0.9,0.2-1.5,1-1.4,1.9  l3,21.8C407.2,506.7,408,507.3,408.9,507.2z"
   id="path3608" />
<g
   id="g3614">
	<g
   id="g3612">
		<path
   d="M407.2,451.3c-0.1-0.4-0.2-0.8-0.4-1.2c-0.2-0.4-0.4-0.8-0.6-1.2c-0.5-0.7-1.1-1.4-1.9-1.9c-0.7-0.5-1.5-0.8-2.4-1    c-0.9-0.2-1.8-0.2-2.6,0c-0.9,0.2-1.7,0.5-2.4,1c-0.7,0.5-1.4,1.1-1.9,1.9c-0.5,0.7-0.8,1.5-1,2.4c-0.2,0.9-0.2,1.8,0,2.6    c0.2,0.9,0.5,1.7,1,2.4c0.6,1,1.5,1.8,2.6,2.3c0.6,0.3,1.3,0.5,2,0.7c0.1,0,0.2,0.1,0.2,0.3v1.9c0,0.1-0.1,0.3-0.3,0.3h-2.8    c-0.2,0-0.4,0.1-0.5,0.2c-0.3,0.3-0.3,0.7,0,1l0,0c0.1,0.1,0.2,0.1,0.2,0.2c0.1,0,0.2,0.1,0.3,0.1h2.8c0.1,0,0.1,0,0.2,0.1    c0,0,0.1,0.1,0.1,0.2v2.8c0,0.1,0,0.2,0.1,0.3c0,0.1,0.1,0.2,0.2,0.2c0.1,0.1,0.1,0.1,0.2,0.2c0.2,0.1,0.4,0.1,0.5,0    c0.1,0,0.2-0.1,0.2-0.2c0.1-0.1,0.1-0.1,0.2-0.2c0-0.1,0.1-0.2,0.1-0.3v-2.8c0-0.1,0-0.1,0.1-0.2c0,0,0.1-0.1,0.2-0.1h2.8    c0.1,0,0.2,0,0.3-0.1c0.1,0,0.2-0.1,0.2-0.2c0.1-0.1,0.1-0.1,0.2-0.2c0.1-0.2,0.1-0.4,0-0.5c0,0,0-0.1-0.1-0.1l-0.1-0.1    c-0.1-0.1-0.3-0.2-0.5-0.2h-2.8c-0.1,0-0.1,0-0.2-0.1c0,0-0.1-0.1-0.1-0.2v-1.8v-0.1c0-0.1,0-0.1,0.1-0.2c0,0,0.1-0.1,0.2-0.1    c0.7-0.1,1.4-0.3,2-0.6c1.4-0.7,2.6-1.9,3.2-3.4c0.2-0.4,0.3-0.8,0.4-1.2C407.4,453,407.4,452.1,407.2,451.3z M405.8,453.6    L405.8,453.6c-0.6,2.9-3.4,4.7-6.2,4.1c-2.9-0.6-4.7-3.4-4.1-6.2c0.6-2.9,3.4-4.7,6.2-4.1c2.5,0.5,4.2,2.7,4.2,5.2    C405.9,452.9,405.9,453.3,405.8,453.6z"
   id="path3610" />
	</g>
</g>
<g
   id="g3616">
</g>
<g
   id="g3618">
</g>
<g
   id="g3620">
</g>
<g
   id="g3622">
</g>
<g
   id="g3624">
</g>
<g
   id="g3626">
</g>
<g
   id="g3628">
</g>
<g
   id="g3630">
</g>
<g
   id="g3632">
</g>
<g
   id="g3634">
</g>
<g
   id="g3636">
</g>
<g
   id="g3638">
</g>
<g
   id="g3640">
</g>
<g
   id="g3642">
</g>
<g
   id="g3644">
</g>
<ellipse
   class="st1"
   cx="427.4"
   cy="391.2"
   rx="3.7"
   ry="4.9"
   id="ellipse3646" />
<g
   id="g3652">
	<path
   d="M429.7,421.3h-4.5c-1.7,0-3.3-2-3.6-4.5l-1.6-16.2c-0.2-2.4,1.5-4.5,4.1-4.5h6.4c2.4,0,4.3,2,4.2,4.5l-1.4,16.2   C433,419.3,431.5,421.3,429.7,421.3z"
   id="path3648" />
	<path
   class="st2"
   d="M429.7,421.3h-4.5c-1.7,0-3.3-2-3.6-4.5l-1.6-16.2c-0.2-2.4,1.5-4.5,4.1-4.5h6.4c2.4,0,4.3,2,4.2,4.5   l-1.4,16.2C433,419.3,431.5,421.3,429.7,421.3z"
   id="path3650" />
</g>
<g
   id="g3658">
	<path
   d="M424.4,451.5h-0.6c-0.6,0-1.1-0.7-1.1-1.6l-0.7-31.7c0-0.9,0.7-1.6,1.6-1.6h0.9c0.9,0,1.6,0.7,1.6,1.6l-0.6,31.7   C425.5,450.7,425,451.5,424.4,451.5z"
   id="path3654" />
	<path
   class="st2"
   d="M424.4,451.5h-0.6c-0.6,0-1.1-0.7-1.1-1.6l-0.7-31.7c0-0.9,0.7-1.6,1.6-1.6h0.9c0.9,0,1.6,0.7,1.6,1.6   l-0.6,31.7C425.5,450.7,425,451.5,424.4,451.5z"
   id="path3656" />
</g>
<g
   id="g3664">
	<path
   d="M430.9,451.5h-0.6c-0.6,0-1.1-0.7-1.1-1.6l-0.7-31.7c0-0.9,0.7-1.6,1.6-1.6h0.9c0.9,0,1.6,0.7,1.6,1.6l-0.6,31.7   C432,450.7,431.5,451.5,430.9,451.5z"
   id="path3660" />
	<path
   class="st2"
   d="M430.9,451.5h-0.6c-0.6,0-1.1-0.7-1.1-1.6l-0.7-31.7c0-0.9,0.7-1.6,1.6-1.6h0.9c0.9,0,1.6,0.7,1.6,1.6   l-0.6,31.7C432,450.7,431.5,451.5,430.9,451.5z"
   id="path3662" />
</g>
<g
   id="g3668">
	<polygon
   class="st8"
   points="426.7,427.2 421.5,427.2 420.3,416.5 427.7,416.5  "
   id="polygon3666" />
</g>
<g
   id="g3680">
	<polyline
   class="st8"
   points="433.3,427.2 428.1,427.2 426.9,416.5 434.3,416.5  "
   id="polyline3670" />
	<path
   class="st9"
   d="M428.1,426.2"
   id="path3672" />
	<path
   class="st9"
   d="M433.3,426.2"
   id="path3674" />
	<path
   class="st9"
   d="M434.3,416.5"
   id="path3676" />
	<path
   class="st9"
   d="M426.9,416.5"
   id="path3678" />
</g>
<path
   class="st1"
   d="M418.6,423L418.6,423c-1-0.2-1.6-1-1.5-1.9l3-21.8c0.2-0.9,1-1.5,1.9-1.4h0.1c0.9,0.2,1.5,1,1.4,1.9l-3,21.8  C420.3,422.5,419.5,423.1,418.6,423z"
   id="path3682" />
<path
   class="st1"
   d="M436.1,423L436.1,423c1-0.2,1.6-1,1.5-1.9l-3-21.8c-0.2-0.9-1-1.5-1.9-1.4h-0.1c-0.9,0.2-1.5,1-1.4,1.9l3,21.8  C434.4,422.5,435.2,423.1,436.1,423z"
   id="path3684" />
<g
   id="g3690">
	<g
   id="g3688">
		<path
   d="M434.3,367c-0.1-0.4-0.2-0.8-0.4-1.2c-0.2-0.4-0.4-0.8-0.6-1.2c-0.5-0.7-1.1-1.4-1.9-1.9c-0.7-0.5-1.5-0.8-2.4-1    c-0.9-0.2-1.8-0.2-2.6,0c-0.9,0.2-1.7,0.5-2.4,1c-0.7,0.5-1.4,1.1-1.9,1.9c-0.5,0.7-0.8,1.5-1,2.4c-0.2,0.9-0.2,1.8,0,2.6    c0.2,0.9,0.5,1.7,1,2.4c0.6,1,1.5,1.8,2.6,2.3c0.6,0.3,1.3,0.5,2,0.7c0.1,0,0.2,0.1,0.2,0.3v1.9c0,0.1-0.1,0.3-0.3,0.3H424    c-0.2,0-0.4,0.1-0.5,0.2c-0.3,0.3-0.3,0.7,0,1l0,0c0.1,0.1,0.2,0.1,0.2,0.2c0.1,0,0.2,0.1,0.3,0.1h2.8c0.1,0,0.1,0,0.2,0.1    c0,0,0.1,0.1,0.1,0.2v2.8c0,0.1,0,0.2,0.1,0.3c0,0.1,0.1,0.2,0.2,0.2c0.1,0.1,0.2,0.1,0.2,0.2c0.2,0.1,0.4,0.1,0.5,0    c0.1,0,0.2-0.1,0.2-0.2c0.1-0.1,0.1-0.2,0.2-0.2c0-0.1,0.1-0.2,0.1-0.3V379c0-0.1,0-0.1,0.1-0.2c0,0,0.1-0.1,0.2-0.1h2.8    c0.1,0,0.2,0,0.3-0.1c0.1,0,0.2-0.1,0.2-0.2c0.1-0.1,0.1-0.2,0.2-0.2c0.1-0.2,0.1-0.4,0-0.5c0,0,0-0.1-0.1-0.1l-0.1-0.1    c-0.1-0.1-0.3-0.2-0.5-0.2h-2.8c-0.1,0-0.1,0-0.2-0.1c0,0-0.1-0.1-0.1-0.2v-1.8v-0.1c0-0.1,0-0.1,0.1-0.2c0,0,0.1-0.1,0.2-0.1    c0.7-0.1,1.4-0.3,2-0.6c1.4-0.7,2.6-1.9,3.2-3.4c0.2-0.4,0.3-0.8,0.4-1.3C434.5,368.7,434.5,367.8,434.3,367z M432.9,369.3    L432.9,369.3c-0.6,2.9-3.4,4.7-6.2,4.1c-2.9-0.6-4.7-3.4-4.1-6.2c0.6-2.9,3.4-4.7,6.2-4.1c2.5,0.5,4.2,2.7,4.2,5.2    C433,368.6,433,369,432.9,369.3z"
   id="path3686" />
	</g>
</g>
<g
   id="g3692">
</g>
<g
   id="g3694">
</g>
<g
   id="g3696">
</g>
<g
   id="g3698">
</g>
<g
   id="g3700">
</g>
<g
   id="g3702">
</g>
<g
   id="g3704">
</g>
<g
   id="g3706">
</g>
<g
   id="g3708">
</g>
<g
   id="g3710">
</g>
<g
   id="g3712">
</g>
<g
   id="g3714">
</g>
<g
   id="g3716">
</g>
<g
   id="g3718">
</g>
<g
   id="g3720">
</g>
<ellipse
   class="st1"
   cx="454.1"
   cy="275.8"
   rx="3.7"
   ry="4.9"
   id="ellipse3722" />
<g
   id="g3728">
	<path
   d="M456.5,305.8H452c-1.7,0-3.3-2-3.6-4.5l-1.6-16.1c-0.2-2.4,1.5-4.5,4.1-4.5h6.4c2.4,0,4.3,2,4.1,4.5l-1.4,16.1   C459.8,303.8,458.3,305.8,456.5,305.8z"
   id="path3724" />
	<path
   class="st2"
   d="M456.5,305.8H452c-1.7,0-3.3-2-3.6-4.5l-1.6-16.1c-0.2-2.4,1.5-4.5,4.1-4.5h6.4c2.4,0,4.3,2,4.1,4.5l-1.4,16.1   C459.8,303.8,458.3,305.8,456.5,305.8z"
   id="path3726" />
</g>
<g
   id="g3734">
	<path
   d="M451.2,335.8h-0.6c-0.6,0-1.1-0.7-1.1-1.6l-0.6-31.6c0-0.9,0.7-1.6,1.6-1.6h0.9c0.9,0,1.6,0.7,1.6,1.6l-0.6,31.6   C452.3,335.1,451.8,335.8,451.2,335.8z"
   id="path3730" />
	<path
   class="st2"
   d="M451.2,335.8h-0.6c-0.6,0-1.1-0.7-1.1-1.6l-0.6-31.6c0-0.9,0.7-1.6,1.6-1.6h0.9c0.9,0,1.6,0.7,1.6,1.6   l-0.6,31.6C452.3,335.1,451.8,335.8,451.2,335.8z"
   id="path3732" />
</g>
<g
   id="g3740">
	<path
   d="M457.7,335.8h-0.6c-0.6,0-1.1-0.7-1.1-1.6l-0.6-31.6c0-0.9,0.7-1.6,1.6-1.6h0.9c0.9,0,1.6,0.7,1.6,1.6l-0.6,31.6   C458.8,335.1,458.3,335.8,457.7,335.8z"
   id="path3736" />
	<path
   class="st2"
   d="M457.7,335.8h-0.6c-0.6,0-1.1-0.7-1.1-1.6l-0.6-31.6c0-0.9,0.7-1.6,1.6-1.6h0.9c0.9,0,1.6,0.7,1.6,1.6   l-0.6,31.6C458.8,335.1,458.3,335.8,457.7,335.8z"
   id="path3738" />
</g>
<g
   id="g3744">
	<polygon
   class="st3"
   points="453.5,311.6 448.3,311.6 447.2,301 454.5,301  "
   id="polygon3742" />
</g>
<g
   id="g3756">
	<polyline
   class="st3"
   points="460.1,311.6 454.9,311.6 453.7,301 461.1,301  "
   id="polyline3746" />
	<path
   class="st4"
   d="M454.9,310.7"
   id="path3748" />
	<path
   class="st4"
   d="M460.1,310.7"
   id="path3750" />
	<path
   class="st4"
   d="M461,300.9"
   id="path3752" />
	<path
   class="st4"
   d="M453.7,300.9"
   id="path3754" />
</g>
<path
   class="st1"
   d="M445.5,307.4L445.5,307.4c-1-0.2-1.6-1-1.5-1.9l3-21.7c0.2-0.9,1-1.5,1.9-1.4h0.1c0.9,0.2,1.5,1,1.4,1.9  l-3,21.7C447.2,306.9,446.4,307.5,445.5,307.4z"
   id="path3758" />
<path
   class="st1"
   d="M462.8,307.4L462.8,307.4c1-0.2,1.6-1,1.5-1.9l-3-21.7c-0.2-0.9-1-1.5-1.9-1.4h-0.1c-0.9,0.2-1.5,1-1.4,1.9  l3,21.7C461.1,306.9,461.9,307.5,462.8,307.4z"
   id="path3760" />
<g
   id="g3766">
	<g
   id="g3764">
		<path
   d="M460.8,251.6c-0.1-0.4-0.2-0.8-0.4-1.2c-0.2-0.4-0.4-0.8-0.6-1.2c-0.5-0.7-1.1-1.4-1.8-1.8c-0.7-0.5-1.5-0.8-2.4-1    c-0.9-0.2-1.7-0.2-2.6,0c-0.9,0.2-1.7,0.5-2.4,1c-0.7,0.5-1.4,1.1-1.8,1.8c-0.5,0.7-0.8,1.5-1,2.4c-0.2,0.9-0.2,1.7,0,2.6    c0.2,0.9,0.5,1.7,1,2.4c0.6,1,1.5,1.7,2.6,2.3c0.6,0.3,1.3,0.5,2,0.6c0.1,0,0.2,0.1,0.2,0.3v1.9c0,0.1-0.1,0.3-0.3,0.3h-2.8    c-0.2,0-0.4,0.1-0.5,0.2c-0.3,0.3-0.3,0.7,0,1l0,0c0.1,0.1,0.1,0.1,0.2,0.2c0.1,0,0.2,0.1,0.3,0.1h2.8c0.1,0,0.1,0,0.2,0.1    c0,0,0.1,0.1,0.1,0.2v2.8c0,0.1,0,0.2,0.1,0.3c0,0.1,0.1,0.2,0.2,0.2c0.1,0.1,0.1,0.1,0.2,0.2c0.2,0.1,0.4,0.1,0.5,0    c0.1,0,0.2-0.1,0.2-0.2c0.1-0.1,0.1-0.1,0.2-0.2c0-0.1,0.1-0.2,0.1-0.3v-2.8c0-0.1,0-0.1,0.1-0.2c0,0,0.1-0.1,0.2-0.1h2.8    c0.1,0,0.2,0,0.3-0.1c0.1,0,0.2-0.1,0.2-0.2c0.1-0.1,0.1-0.1,0.2-0.2c0.1-0.2,0.1-0.4,0-0.5c0,0,0-0.1-0.1-0.1l-0.1-0.1    c-0.1-0.1-0.3-0.2-0.5-0.2h-2.8c-0.1,0-0.1,0-0.2-0.1c0,0-0.1-0.1-0.1-0.2v-1.8v-0.1c0-0.1,0-0.1,0.1-0.2c0,0,0.1-0.1,0.2-0.1    c0.7-0.1,1.4-0.3,2-0.6c1.4-0.7,2.6-1.9,3.2-3.4c0.2-0.4,0.3-0.8,0.4-1.2C461,253.3,461,252.4,460.8,251.6z M459.4,253.9    L459.4,253.9c-0.6,2.9-3.4,4.7-6.2,4.1c-2.9-0.6-4.7-3.4-4.1-6.2c0.6-2.9,3.4-4.7,6.2-4.1c2.5,0.5,4.2,2.7,4.2,5.2    C459.5,253.2,459.5,253.6,459.4,253.9z"
   id="path3762" />
	</g>
</g>
<g
   id="g3768">
</g>
<g
   id="g3770">
</g>
<g
   id="g3772">
</g>
<g
   id="g3774">
</g>
<g
   id="g3776">
</g>
<g
   id="g3778">
</g>
<g
   id="g3780">
</g>
<g
   id="g3782">
</g>
<g
   id="g3784">
</g>
<g
   id="g3786">
</g>
<g
   id="g3788">
</g>
<g
   id="g3790">
</g>
<g
   id="g3792">
</g>
<g
   id="g3794">
</g>
<ellipse
   class="st1"
   cx="480.9"
   cy="401.3"
   rx="3.7"
   ry="4.9"
   id="ellipse3796" />
<g
   id="g3802">
	<path
   d="M483.2,431.4h-4.5c-1.7,0-3.3-2-3.6-4.5l-1.6-16.2c-0.2-2.4,1.5-4.5,4.1-4.5h6.4c2.4,0,4.3,2,4.1,4.5l-1.4,16.2   C486.5,429.3,485,431.4,483.2,431.4z"
   id="path3798" />
	<path
   class="st2"
   d="M483.2,431.4h-4.5c-1.7,0-3.3-2-3.6-4.5l-1.6-16.2c-0.2-2.4,1.5-4.5,4.1-4.5h6.4c2.4,0,4.3,2,4.1,4.5   l-1.4,16.2C486.5,429.3,485,431.4,483.2,431.4z"
   id="path3800" />
</g>
<g
   id="g3808">
	<path
   d="M477.9,461.5h-0.6c-0.6,0-1.1-0.7-1.1-1.6l-0.7-31.6c0-0.9,0.7-1.6,1.6-1.6h0.9c0.9,0,1.6,0.7,1.6,1.6l-0.6,31.6   C479,460.7,478.5,461.5,477.9,461.5z"
   id="path3804" />
	<path
   class="st2"
   d="M477.9,461.5h-0.6c-0.6,0-1.1-0.7-1.1-1.6l-0.7-31.6c0-0.9,0.7-1.6,1.6-1.6h0.9c0.9,0,1.6,0.7,1.6,1.6   l-0.6,31.6C479,460.7,478.5,461.5,477.9,461.5z"
   id="path3806" />
</g>
<g
   id="g3814">
	<path
   d="M484.4,461.5h-0.6c-0.6,0-1.1-0.7-1.1-1.6l-0.7-31.6c0-0.9,0.7-1.6,1.6-1.6h0.9c0.9,0,1.6,0.7,1.6,1.6l-0.6,31.6   C485.5,460.7,485,461.5,484.4,461.5z"
   id="path3810" />
	<path
   class="st2"
   d="M484.4,461.5h-0.6c-0.6,0-1.1-0.7-1.1-1.6l-0.7-31.6c0-0.9,0.7-1.6,1.6-1.6h0.9c0.9,0,1.6,0.7,1.6,1.6   l-0.6,31.6C485.5,460.7,485,461.5,484.4,461.5z"
   id="path3812" />
</g>
<g
   id="g3818">
	<polygon
   class="st3"
   points="480.2,437.2 475,437.2 473.8,426.6 481.2,426.6  "
   id="polygon3816" />
</g>
<g
   id="g3830">
	<polyline
   class="st3"
   points="486.8,437.2 481.6,437.2 480.4,426.6 487.8,426.6  "
   id="polyline3820" />
	<path
   class="st4"
   d="M481.6,436.2"
   id="path3822" />
	<path
   class="st4"
   d="M486.8,436.2"
   id="path3824" />
	<path
   class="st4"
   d="M487.8,426.5"
   id="path3826" />
	<path
   class="st4"
   d="M480.4,426.5"
   id="path3828" />
</g>
<path
   class="st1"
   d="M472.1,433L472.1,433c-1-0.2-1.6-1-1.5-1.9l3-21.8c0.2-0.9,1-1.5,1.9-1.4h0.1c0.9,0.2,1.5,1,1.4,1.9l-3,21.8  C473.9,432.5,473,433.1,472.1,433z"
   id="path3832" />
<path
   class="st1"
   d="M489.6,433L489.6,433c1-0.2,1.6-1,1.5-1.9l-3-21.8c-0.2-0.9-1-1.5-1.9-1.4h-0.1c-0.9,0.2-1.5,1-1.4,1.9l3,21.8  C487.8,432.5,488.7,433.1,489.6,433z"
   id="path3834" />
<g
   id="g3840">
	<g
   id="g3838">
		<path
   d="M487.5,377c-0.1-0.4-0.2-0.8-0.4-1.2c-0.2-0.4-0.4-0.8-0.6-1.2c-0.5-0.7-1.1-1.4-1.8-1.9c-0.7-0.5-1.5-0.8-2.4-1    c-0.9-0.2-1.8-0.2-2.6,0c-0.9,0.2-1.7,0.5-2.4,1c-0.7,0.5-1.4,1.1-1.9,1.8c-0.5,0.7-0.8,1.5-1,2.4c-0.2,0.9-0.2,1.8,0,2.6    c0.2,0.9,0.5,1.7,1,2.4c0.6,1,1.5,1.8,2.6,2.3c0.6,0.3,1.3,0.5,2,0.7c0.1,0,0.2,0.1,0.2,0.3v1.9c0,0.1-0.1,0.3-0.3,0.3h-2.8    c-0.2,0-0.4,0.1-0.5,0.2c-0.3,0.3-0.3,0.7,0,1l0,0c0.1,0.1,0.2,0.1,0.2,0.2c0.1,0,0.2,0.1,0.3,0.1h2.8c0.1,0,0.1,0,0.2,0.1    c0,0,0.1,0.1,0.1,0.2v2.8c0,0.1,0,0.2,0.1,0.3c0,0.1,0.1,0.2,0.2,0.2c0.1,0.1,0.1,0.1,0.2,0.2c0.2,0.1,0.4,0.1,0.5,0    c0.1,0,0.2-0.1,0.2-0.2c0.1-0.1,0.1-0.1,0.2-0.2c0-0.1,0.1-0.2,0.1-0.3V389c0-0.1,0-0.1,0.1-0.2c0,0,0.1-0.1,0.2-0.1h2.8    c0.1,0,0.2,0,0.3-0.1c0.1,0,0.2-0.1,0.2-0.2c0.1-0.1,0.1-0.1,0.2-0.2c0.1-0.2,0.1-0.4,0-0.5c0,0,0-0.1-0.1-0.1l-0.1-0.1    c-0.1-0.1-0.3-0.2-0.5-0.2h-2.8c-0.1,0-0.1,0-0.2-0.1c0,0-0.1-0.1-0.1-0.2v-1.8v-0.1c0-0.1,0-0.1,0.1-0.2c0,0,0.1-0.1,0.2-0.1    c0.7-0.1,1.4-0.3,2-0.6c1.4-0.7,2.6-1.9,3.2-3.4c0.2-0.4,0.3-0.8,0.4-1.2C487.7,378.8,487.7,377.9,487.5,377z M486.1,379.3    L486.1,379.3c-0.6,2.9-3.4,4.7-6.2,4.1c-2.9-0.6-4.7-3.4-4.1-6.2c0.6-2.9,3.4-4.7,6.2-4.1c2.5,0.5,4.2,2.7,4.2,5.2    C486.2,378.7,486.2,379,486.1,379.3z"
   id="path3836" />
	</g>
</g>
<g
   id="g3842">
</g>
<g
   id="g3844">
</g>
<g
   id="g3846">
</g>
<g
   id="g3848">
</g>
<g
   id="g3850">
</g>
<g
   id="g3852">
</g>
<g
   id="g3854">
</g>
<g
   id="g3856">
</g>
<g
   id="g3858">
</g>
<g
   id="g3860">
</g>
<g
   id="g3862">
</g>
<g
   id="g3864">
</g>
<g
   id="g3866">
</g>
<g
   id="g3868">
</g>
<g
   id="g3870">
</g>
<ellipse
   class="st1"
   cx="507.6"
   cy="345.5"
   rx="3.7"
   ry="4.9"
   id="ellipse3872" />
<g
   id="g3878">
	<path
   d="M510,375.6h-4.5c-1.7,0-3.3-2-3.6-4.5l-1.6-16.2c-0.2-2.4,1.5-4.5,4.1-4.5h6.4c2.4,0,4.3,2,4.1,4.5l-1.4,16.2   C513.3,373.6,511.8,375.6,510,375.6z"
   id="path3874" />
	<path
   class="st2"
   d="M510,375.6h-4.5c-1.7,0-3.3-2-3.6-4.5l-1.6-16.2c-0.2-2.4,1.5-4.5,4.1-4.5h6.4c2.4,0,4.3,2,4.1,4.5l-1.4,16.2   C513.3,373.6,511.8,375.6,510,375.6z"
   id="path3876" />
</g>
<g
   id="g3884">
	<path
   d="M504.7,405.7h-0.6c-0.6,0-1.1-0.7-1.1-1.6l-0.7-31.6c0-0.9,0.7-1.6,1.6-1.6h0.9c0.9,0,1.6,0.7,1.6,1.6l-0.6,31.6   C505.8,405,505.3,405.7,504.7,405.7z"
   id="path3880" />
	<path
   class="st2"
   d="M504.7,405.7h-0.6c-0.6,0-1.1-0.7-1.1-1.6l-0.7-31.6c0-0.9,0.7-1.6,1.6-1.6h0.9c0.9,0,1.6,0.7,1.6,1.6   l-0.6,31.6C505.8,405,505.3,405.7,504.7,405.7z"
   id="path3882" />
</g>
<g
   id="g3890">
	<path
   d="M511.2,405.7h-0.6c-0.6,0-1.1-0.7-1.1-1.6l-0.7-31.6c0-0.9,0.7-1.6,1.6-1.6h0.9c0.9,0,1.6,0.7,1.6,1.6l-0.6,31.6   C512.3,405,511.8,405.7,511.2,405.7z"
   id="path3886" />
	<path
   class="st2"
   d="M511.2,405.7h-0.6c-0.6,0-1.1-0.7-1.1-1.6l-0.7-31.6c0-0.9,0.7-1.6,1.6-1.6h0.9c0.9,0,1.6,0.7,1.6,1.6   l-0.6,31.6C512.3,405,511.8,405.7,511.2,405.7z"
   id="path3888" />
</g>
<g
   id="g3894">
	<polygon
   class="st3"
   points="507,381.5 501.8,381.5 500.6,370.8 508,370.8  "
   id="polygon3892" />
</g>
<g
   id="g3906">
	<polyline
   class="st3"
   points="513.6,381.5 508.4,381.5 507.2,370.8 514.6,370.8  "
   id="polyline3896" />
	<path
   class="st4"
   d="M508.4,380.5"
   id="path3898" />
	<path
   class="st4"
   d="M513.6,380.5"
   id="path3900" />
	<path
   class="st4"
   d="M514.6,370.7"
   id="path3902" />
	<path
   class="st4"
   d="M507.2,370.7"
   id="path3904" />
</g>
<path
   class="st1"
   d="M498.9,377.2L498.9,377.2c-1-0.2-1.6-1-1.5-1.9l3-21.8c0.2-0.9,1-1.5,1.9-1.4h0.1c0.9,0.2,1.5,1,1.4,1.9  l-3,21.8C500.7,376.7,499.8,377.3,498.9,377.2z"
   id="path3908" />
<path
   class="st1"
   d="M516.4,377.2L516.4,377.2c1-0.2,1.6-1,1.5-1.9l-3-21.8c-0.2-0.9-1-1.5-1.9-1.4h-0.1c-0.9,0.2-1.5,1-1.4,1.9  l3,21.8C514.6,376.7,515.5,377.3,516.4,377.2z"
   id="path3910" />
<g
   id="g3916">
	<g
   id="g3914">
		<path
   d="M514.3,321.3c-0.1-0.4-0.2-0.8-0.4-1.2c-0.2-0.4-0.4-0.8-0.6-1.2c-0.5-0.7-1.1-1.4-1.8-1.9c-0.7-0.5-1.5-0.8-2.4-1    c-0.9-0.2-1.8-0.2-2.6,0c-0.9,0.2-1.7,0.5-2.4,1c-0.7,0.5-1.4,1.1-1.8,1.8c-0.5,0.7-0.8,1.5-1,2.4c-0.2,0.9-0.2,1.8,0,2.6    c0.2,0.9,0.5,1.7,1,2.4c0.6,1,1.5,1.7,2.6,2.3c0.6,0.3,1.3,0.5,2,0.7c0.1,0,0.2,0.1,0.2,0.3v1.9c0,0.1-0.1,0.3-0.3,0.3H504    c-0.2,0-0.4,0.1-0.5,0.2c-0.3,0.3-0.3,0.7,0,1l0,0c0.1,0.1,0.2,0.1,0.2,0.2c0.1,0,0.2,0.1,0.3,0.1h2.8c0.1,0,0.1,0,0.2,0.1    c0,0,0.1,0.1,0.1,0.2v2.8c0,0.1,0,0.2,0.1,0.3c0,0.1,0.1,0.2,0.2,0.2c0.1,0.1,0.1,0.1,0.2,0.2c0.2,0.1,0.4,0.1,0.5,0    c0.1,0,0.2-0.1,0.2-0.2c0.1-0.1,0.1-0.1,0.2-0.2c0-0.1,0.1-0.2,0.1-0.3v-2.8c0-0.1,0-0.1,0.1-0.2c0,0,0.1-0.1,0.2-0.1h2.8    c0.1,0,0.2,0,0.3-0.1c0.1,0,0.2-0.1,0.2-0.2c0.1-0.1,0.1-0.1,0.2-0.2c0.1-0.2,0.1-0.4,0-0.5c0,0,0-0.1-0.1-0.1l-0.1-0.1    c-0.1-0.1-0.3-0.2-0.5-0.2h-2.8c-0.1,0-0.1,0-0.2-0.1c0,0-0.1-0.1-0.1-0.2v-1.8v-0.1c0-0.1,0-0.1,0.1-0.2c0,0,0.1-0.1,0.2-0.1    c0.7-0.1,1.4-0.3,2-0.6c1.4-0.7,2.6-1.9,3.2-3.4c0.2-0.4,0.3-0.8,0.4-1.2C514.5,323,514.5,322.1,514.3,321.3z M512.9,323.6    L512.9,323.6c-0.6,2.9-3.4,4.7-6.2,4.1c-2.9-0.6-4.7-3.4-4.1-6.2c0.6-2.9,3.4-4.7,6.2-4.1c2.5,0.5,4.2,2.7,4.2,5.2    C513,322.9,513,323.3,512.9,323.6z"
   id="path3912" />
	</g>
</g>
<g
   id="g3918">
</g>
<g
   id="g3920">
</g>
<g
   id="g3922">
</g>
<g
   id="g3924">
</g>
<g
   id="g3926">
</g>
<g
   id="g3928">
</g>
<g
   id="g3930">
</g>
<g
   id="g3932">
</g>
<g
   id="g3934">
</g>
<g
   id="g3936">
</g>
<g
   id="g3938">
</g>
<g
   id="g3940">
</g>
<g
   id="g3942">
</g>
<g
   id="g3944">
</g>
<g
   id="g3946">
</g>
<g
   id="g3988">
	<ellipse
   class="st1"
   cx="920.7"
   cy="430.8"
   rx="4.5"
   ry="6"
   id="ellipse3948" />
	<g
   id="g3954">
		<path
   d="M923.6,467.8h-5.5c-2.1,0-4.1-2.5-4.4-5.5l-2-19.9c-0.3-3,1.9-5.5,5-5.5h7.9c3,0,5.3,2.5,5.1,5.5l-1.7,19.9    C927.7,465.3,925.8,467.8,923.6,467.8z"
   id="path3950" />
		<path
   class="st2"
   d="M923.6,467.8h-5.5c-2.1,0-4.1-2.5-4.4-5.5l-2-19.9c-0.3-3,1.9-5.5,5-5.5h7.9c3,0,5.3,2.5,5.1,5.5l-1.7,19.9    C927.7,465.3,925.8,467.8,923.6,467.8z"
   id="path3952" />
	</g>
	<g
   id="g3960">
		<path
   d="M917.1,504.8h-0.7c-0.7,0-1.3-0.9-1.4-2l-0.8-38.9c0-1.1,0.9-2,2-2h1.1c1.1,0,2,0.9,2,2l-0.7,38.9    C918.4,503.9,917.8,504.8,917.1,504.8z"
   id="path3956" />
		<path
   class="st2"
   d="M917.1,504.8h-0.7c-0.7,0-1.3-0.9-1.4-2l-0.8-38.9c0-1.1,0.9-2,2-2h1.1c1.1,0,2,0.9,2,2l-0.7,38.9    C918.4,503.9,917.8,504.8,917.1,504.8z"
   id="path3958" />
	</g>
	<g
   id="g3966">
		<path
   d="M925.1,504.8h-0.7c-0.7,0-1.3-0.9-1.4-2l-0.8-38.9c0-1.1,0.9-2,2-2h1.1c1.1,0,2,0.9,2,2l-0.7,38.9    C926.4,503.9,925.8,504.8,925.1,504.8z"
   id="path3962" />
		<path
   class="st2"
   d="M925.1,504.8h-0.7c-0.7,0-1.3-0.9-1.4-2l-0.8-38.9c0-1.1,0.9-2,2-2h1.1c1.1,0,2,0.9,2,2l-0.7,38.9    C926.4,503.9,925.8,504.8,925.1,504.8z"
   id="path3964" />
	</g>
	<g
   id="g3970">
		<polygon
   class="st3"
   points="919.9,475 913.4,475 912,461.9 921.1,461.9   "
   id="polygon3968" />
	</g>
	<g
   id="g3982">
		<polyline
   class="st3"
   points="928,475 921.6,475 920.2,461.9 929.2,461.9   "
   id="polyline3972" />
		<path
   class="st4"
   d="M921.6,473.8"
   id="path3974" />
		<path
   class="st4"
   d="M928,473.8"
   id="path3976" />
		<path
   class="st4"
   d="M929.2,461.8"
   id="path3978" />
		<path
   class="st4"
   d="M920.2,461.8"
   id="path3980" />
	</g>
	<path
   class="st1"
   d="M910,469.8L910,469.8c-1.2-0.2-2-1.2-1.8-2.3l3.7-26.8c0.2-1.1,1.2-1.9,2.3-1.7h0.1c1.1,0.2,1.9,1.2,1.7,2.3   l-3.7,26.8C912.1,469.2,911.1,469.9,910,469.8z"
   id="path3984" />
	<path
   class="st1"
   d="M931.4,469.8h0.1c1.1-0.2,1.9-1.2,1.7-2.3l-3.7-26.8c-0.2-1.1-1.2-1.9-2.3-1.7h-0.1c-1.1,0.2-1.9,1.2-1.7,2.3   l3.7,26.8C929.3,469.2,930.3,469.9,931.4,469.8z"
   id="path3986" />
</g>
<path
   d="M573.1,389.3c0-0.1,0-0.1,0-0.2c0,0,0,0,0,0c0,0,0,0,0,0c0-0.1-0.1-0.1-0.1-0.2c0,0,0,0,0,0c0,0-0.1-0.1-0.1-0.1  c0,0,0,0,0,0c-0.1,0-0.1-0.1-0.2-0.1c0,0,0,0,0,0c-0.1,0-0.1,0-0.2,0h-5.2c-0.4,0-0.7,0.3-0.7,0.7c0,0.4,0.3,0.7,0.7,0.7h3.4  l-4.5,4.5c-1.2-1-2.7-1.5-4.2-1.5c-3.7,0-6.7,3-6.7,6.7c0,3.7,3,6.7,6.7,6.7c3.7,0,6.7-3,6.7-6.7c0-1.5-0.5-3-1.5-4.2l4.5-4.5v3.4  c0,0.4,0.3,0.7,0.7,0.7c0.4,0,0.7-0.3,0.7-0.7L573.1,389.3C573.1,389.4,573.1,389.3,573.1,389.3  C573.1,389.3,573.1,389.3,573.1,389.3z M561.9,405.1c-2.9,0-5.2-2.4-5.2-5.2c0-2.9,2.4-5.2,5.2-5.2c1.4,0,2.7,0.5,3.7,1.5  c1,1,1.5,2.3,1.5,3.7C567.1,402.8,564.8,405.1,561.9,405.1z"
   id="path3990" />
<ellipse
   class="st1"
   cx="562"
   cy="415.3"
   rx="3.6"
   ry="4.9"
   id="ellipse3992" />
<g
   id="g3998">
	<path
   d="M564.3,445.2h-4.5c-1.7,0-3.3-2-3.6-4.5l-1.6-16.1c-0.2-2.4,1.5-4.5,4-4.5h6.4c2.4,0,4.3,2,4.1,4.5l-1.4,16.1   C567.6,443.2,566.1,445.2,564.3,445.2z"
   id="path3994" />
	<path
   class="st2"
   d="M564.3,445.2h-4.5c-1.7,0-3.3-2-3.6-4.5l-1.6-16.1c-0.2-2.4,1.5-4.5,4-4.5h6.4c2.4,0,4.3,2,4.1,4.5l-1.4,16.1   C567.6,443.2,566.1,445.2,564.3,445.2z"
   id="path3996" />
</g>
<g
   id="g4004">
	<path
   d="M559.1,475.2h-0.6c-0.6,0-1.1-0.7-1.1-1.6l-0.6-31.5c0-0.9,0.7-1.6,1.6-1.6h0.9c0.9,0,1.6,0.7,1.6,1.6l-0.6,31.5   C560.1,474.4,559.6,475.2,559.1,475.2z"
   id="path4000" />
	<path
   class="st2"
   d="M559.1,475.2h-0.6c-0.6,0-1.1-0.7-1.1-1.6l-0.6-31.5c0-0.9,0.7-1.6,1.6-1.6h0.9c0.9,0,1.6,0.7,1.6,1.6   l-0.6,31.5C560.1,474.4,559.6,475.2,559.1,475.2z"
   id="path4002" />
</g>
<g
   id="g4010">
	<path
   d="M565.5,475.2H565c-0.6,0-1.1-0.7-1.1-1.6l-0.6-31.5c0-0.9,0.7-1.6,1.6-1.6h0.9c0.9,0,1.6,0.7,1.6,1.6l-0.6,31.5   C566.6,474.4,566.1,475.2,565.5,475.2z"
   id="path4006" />
	<path
   class="st2"
   d="M565.5,475.2H565c-0.6,0-1.1-0.7-1.1-1.6l-0.6-31.5c0-0.9,0.7-1.6,1.6-1.6h0.9c0.9,0,1.6,0.7,1.6,1.6   l-0.6,31.5C566.6,474.4,566.1,475.2,565.5,475.2z"
   id="path4008" />
</g>
<g
   id="g4014">
	<polygon
   class="st3"
   points="561.3,451.1 556.1,451.1 555,440.4 562.3,440.4  "
   id="polygon4012" />
</g>
<g
   id="g4026">
	<polyline
   class="st3"
   points="567.9,451.1 562.7,451.1 561.6,440.4 568.9,440.4  "
   id="polyline4016" />
	<path
   class="st4"
   d="M562.7,450.1"
   id="path4018" />
	<path
   class="st4"
   d="M567.9,450.1"
   id="path4020" />
	<path
   class="st4"
   d="M568.8,440.4"
   id="path4022" />
	<path
   class="st4"
   d="M561.6,440.4"
   id="path4024" />
</g>
<path
   class="st1"
   d="M553.3,446.8L553.3,446.8c-1-0.2-1.6-1-1.5-1.9l3-21.7c0.2-0.9,1-1.5,1.9-1.4h0.1c0.9,0.2,1.5,1,1.4,1.9  l-3,21.7C555,446.4,554.2,446.9,553.3,446.8z"
   id="path4028" />
<path
   class="st1"
   d="M570.6,446.8L570.6,446.8c1-0.2,1.6-1,1.5-1.9l-3-21.7c-0.2-0.9-1-1.5-1.9-1.4h-0.1c-0.9,0.2-1.5,1-1.4,1.9  l3,21.7C568.9,446.4,569.7,446.9,570.6,446.8z"
   id="path4030" />
<path
   d="M600.2,265.2c0-0.1,0-0.1,0-0.2c0,0,0,0,0,0c0,0,0,0,0,0c0-0.1-0.1-0.1-0.1-0.2c0,0,0,0,0,0c0-0.1-0.1-0.1-0.1-0.1  c0,0,0,0,0,0c-0.1,0-0.1-0.1-0.2-0.1c0,0,0,0,0,0c-0.1,0-0.1,0-0.2,0H594c-0.4,0-0.8,0.3-0.8,0.8s0.3,0.8,0.8,0.8h3.6l-4.6,4.6  c-1.2-1-2.8-1.5-4.4-1.5c-3.9,0-7,3.1-7,7c0,3.9,3.1,7,7,7s7-3.1,7-7c0-1.6-0.5-3.1-1.5-4.4l4.6-4.6v3.6c0,0.4,0.3,0.8,0.8,0.8  c0.4,0,0.8-0.3,0.8-0.8v-5.4C600.2,265.3,600.2,265.3,600.2,265.2C600.2,265.2,600.2,265.2,600.2,265.2z M588.5,281.6  c-3,0-5.4-2.4-5.4-5.4c0-3,2.4-5.4,5.4-5.4c1.5,0,2.8,0.6,3.8,1.6c1,1,1.6,2.4,1.6,3.8C594,279.2,591.5,281.6,588.5,281.6z"
   id="path4032" />
<ellipse
   class="st1"
   cx="588.6"
   cy="292.1"
   rx="3.8"
   ry="5"
   id="ellipse4034" />
<g
   id="g4040">
	<path
   d="M591.1,323.1h-4.6c-1.8,0-3.4-2.1-3.7-4.6l-1.7-16.7c-0.3-2.5,1.6-4.6,4.2-4.6h6.6c2.5,0,4.4,2.1,4.3,4.6l-1.4,16.7   C594.5,321,592.9,323.1,591.1,323.1z"
   id="path4036" />
	<path
   class="st2"
   d="M591.1,323.1h-4.6c-1.8,0-3.4-2.1-3.7-4.6l-1.7-16.7c-0.3-2.5,1.6-4.6,4.2-4.6h6.6c2.5,0,4.4,2.1,4.3,4.6   l-1.4,16.7C594.5,321,592.9,323.1,591.1,323.1z"
   id="path4038" />
</g>
<g
   id="g4046">
	<path
   d="M585.6,354.2H585c-0.6,0-1.1-0.8-1.2-1.7l-0.7-32.6c0-0.9,0.8-1.7,1.7-1.7h0.9c0.9,0,1.7,0.8,1.7,1.7l-0.6,32.6   C586.7,353.4,586.2,354.2,585.6,354.2z"
   id="path4042" />
	<path
   class="st2"
   d="M585.6,354.2H585c-0.6,0-1.1-0.8-1.2-1.7l-0.7-32.6c0-0.9,0.8-1.7,1.7-1.7h0.9c0.9,0,1.7,0.8,1.7,1.7   l-0.6,32.6C586.7,353.4,586.2,354.2,585.6,354.2z"
   id="path4044" />
</g>
<g
   id="g4052">
	<path
   d="M592.3,354.2h-0.6c-0.6,0-1.1-0.8-1.2-1.7l-0.7-32.6c0-0.9,0.8-1.7,1.7-1.7h0.9c0.9,0,1.7,0.8,1.7,1.7l-0.6,32.6   C593.4,353.4,592.9,354.2,592.3,354.2z"
   id="path4048" />
	<path
   class="st2"
   d="M592.3,354.2h-0.6c-0.6,0-1.1-0.8-1.2-1.7l-0.7-32.6c0-0.9,0.8-1.7,1.7-1.7h0.9c0.9,0,1.7,0.8,1.7,1.7   l-0.6,32.6C593.4,353.4,592.9,354.2,592.3,354.2z"
   id="path4050" />
</g>
<g
   id="g4056">
	<polygon
   class="st8"
   points="588,329.2 582.6,329.2 581.4,318.2 589,318.2  "
   id="polygon4054" />
</g>
<g
   id="g4068">
	<polyline
   class="st8"
   points="594.8,329.2 589.4,329.2 588.2,318.2 595.8,318.2  "
   id="polyline4058" />
	<path
   class="st4"
   d="M589.4,328.2"
   id="path4060" />
	<path
   class="st4"
   d="M594.8,328.2"
   id="path4062" />
	<path
   class="st4"
   d="M595.8,318.1"
   id="path4064" />
	<path
   class="st4"
   d="M588.2,318.1"
   id="path4066" />
</g>
<path
   class="st1"
   d="M579.7,324.8L579.7,324.8c-1-0.2-1.7-1-1.5-1.9l3.1-22.5c0.2-0.9,1-1.6,1.9-1.4h0.1c0.9,0.2,1.6,1,1.4,1.9  l-3.1,22.5C581.4,324.3,580.6,324.9,579.7,324.8z"
   id="path4070" />
<path
   class="st1"
   d="M597.6,324.8L597.6,324.8c1-0.2,1.7-1,1.5-1.9l-3.1-22.5c-0.2-0.9-1-1.6-1.9-1.4H594c-0.9,0.2-1.6,1-1.4,1.9  l3.1,22.5C595.8,324.3,596.7,324.9,597.6,324.8z"
   id="path4072" />
<ellipse
   class="st1"
   cx="641.9"
   cy="378"
   rx="3.7"
   ry="4.9"
   id="ellipse4074" />
<g
   id="g4080">
	<path
   d="M644.3,408h-4.5c-1.7,0-3.3-2-3.6-4.5l-1.6-16.2c-0.2-2.4,1.5-4.5,4.1-4.5h6.4c2.4,0,4.3,2,4.1,4.5l-1.4,16.2   C647.6,406,646.1,408,644.3,408z"
   id="path4076" />
	<path
   class="st2"
   d="M644.3,408h-4.5c-1.7,0-3.3-2-3.6-4.5l-1.6-16.2c-0.2-2.4,1.5-4.5,4.1-4.5h6.4c2.4,0,4.3,2,4.1,4.5l-1.4,16.2   C647.6,406,646.1,408,644.3,408z"
   id="path4078" />
</g>
<g
   id="g4086">
	<path
   d="M639,438.1h-0.6c-0.6,0-1.1-0.7-1.1-1.6l-0.6-31.6c0-0.9,0.7-1.6,1.6-1.6h0.9c0.9,0,1.6,0.7,1.6,1.6l-0.6,31.6   C640.1,437.4,639.6,438.1,639,438.1z"
   id="path4082" />
	<path
   class="st2"
   d="M639,438.1h-0.6c-0.6,0-1.1-0.7-1.1-1.6l-0.6-31.6c0-0.9,0.7-1.6,1.6-1.6h0.9c0.9,0,1.6,0.7,1.6,1.6l-0.6,31.6   C640.1,437.4,639.6,438.1,639,438.1z"
   id="path4084" />
</g>
<g
   id="g4092">
	<path
   d="M645.5,438.1h-0.6c-0.6,0-1.1-0.7-1.1-1.6l-0.6-31.6c0-0.9,0.7-1.6,1.6-1.6h0.9c0.9,0,1.6,0.7,1.6,1.6l-0.6,31.6   C646.6,437.4,646.1,438.1,645.5,438.1z"
   id="path4088" />
	<path
   class="st2"
   d="M645.5,438.1h-0.6c-0.6,0-1.1-0.7-1.1-1.6l-0.6-31.6c0-0.9,0.7-1.6,1.6-1.6h0.9c0.9,0,1.6,0.7,1.6,1.6   l-0.6,31.6C646.6,437.4,646.1,438.1,645.5,438.1z"
   id="path4090" />
</g>
<g
   id="g4096">
	<polygon
   class="st3"
   points="641.3,413.9 636.1,413.9 634.9,403.2 642.3,403.2  "
   id="polygon4094" />
</g>
<g
   id="g4108">
	<polyline
   class="st3"
   points="647.9,413.9 642.7,413.9 641.5,403.2 648.9,403.2  "
   id="polyline4098" />
	<path
   class="st4"
   d="M642.7,412.9"
   id="path4100" />
	<path
   class="st4"
   d="M647.9,412.9"
   id="path4102" />
	<path
   class="st4"
   d="M648.8,403.2"
   id="path4104" />
	<path
   class="st4"
   d="M641.5,403.2"
   id="path4106" />
</g>
<path
   class="st1"
   d="M633.2,409.7L633.2,409.7c-1-0.2-1.6-1-1.5-1.9l3-21.8c0.2-0.9,1-1.5,1.9-1.4h0.1c0.9,0.2,1.5,1,1.4,1.9  l-3,21.8C635,409.2,634.1,409.7,633.2,409.7z"
   id="path4110" />
<path
   class="st1"
   d="M650.6,409.7L650.6,409.7c1-0.2,1.6-1,1.5-1.9l-3-21.8c-0.2-0.9-1-1.5-1.9-1.4h-0.1c-0.9,0.2-1.5,1-1.4,1.9  l3,21.8C648.9,409.2,649.7,409.7,650.6,409.7z"
   id="path4112" />
<g
   id="g4118">
	<g
   id="g4116">
		<path
   d="M648.6,353.8c-0.1-0.4-0.2-0.8-0.4-1.2c-0.2-0.4-0.4-0.8-0.6-1.2c-0.5-0.7-1.1-1.4-1.8-1.9c-0.7-0.5-1.5-0.8-2.4-1    c-0.9-0.2-1.7-0.2-2.6,0c-0.9,0.2-1.7,0.5-2.4,1c-0.7,0.5-1.4,1.1-1.8,1.8c-0.5,0.7-0.8,1.5-1,2.4c-0.2,0.9-0.2,1.7,0,2.6    c0.2,0.9,0.5,1.7,1,2.4c0.6,1,1.5,1.7,2.6,2.3c0.6,0.3,1.3,0.5,2,0.7c0.1,0,0.2,0.1,0.2,0.3v1.9c0,0.1-0.1,0.3-0.3,0.3h-2.8    c-0.2,0-0.4,0.1-0.5,0.2c-0.3,0.3-0.3,0.7,0,1l0,0c0.1,0.1,0.1,0.1,0.2,0.2c0.1,0,0.2,0.1,0.3,0.1h2.8c0.1,0,0.1,0,0.2,0.1    c0,0,0.1,0.1,0.1,0.2v2.8c0,0.1,0,0.2,0.1,0.3c0,0.1,0.1,0.2,0.2,0.2c0.1,0.1,0.1,0.1,0.2,0.2c0.2,0.1,0.4,0.1,0.5,0    c0.1,0,0.2-0.1,0.2-0.2c0.1-0.1,0.1-0.1,0.2-0.2c0-0.1,0.1-0.2,0.1-0.3v-2.8c0-0.1,0-0.1,0.1-0.2c0,0,0.1-0.1,0.2-0.1h2.8    c0.1,0,0.2,0,0.3-0.1c0.1,0,0.2-0.1,0.2-0.2c0.1-0.1,0.1-0.1,0.2-0.2c0.1-0.2,0.1-0.4,0-0.5c0,0,0-0.1-0.1-0.1l-0.1-0.1    c-0.1-0.1-0.3-0.2-0.5-0.2H643c-0.1,0-0.1,0-0.2-0.1c0,0-0.1-0.1-0.1-0.2v-1.8V362c0-0.1,0-0.1,0.1-0.2c0,0,0.1-0.1,0.2-0.1    c0.7-0.1,1.4-0.3,2-0.6c1.4-0.7,2.6-1.9,3.2-3.4c0.2-0.4,0.3-0.8,0.4-1.2C648.8,355.5,648.8,354.6,648.6,353.8z M647.2,356.1    L647.2,356.1c-0.6,2.9-3.4,4.7-6.2,4.1s-4.7-3.4-4.1-6.2c0.6-2.9,3.4-4.7,6.2-4.1c2.5,0.5,4.2,2.7,4.2,5.2    C647.3,355.4,647.3,355.8,647.2,356.1z"
   id="path4114" />
	</g>
</g>
<g
   id="g4120">
</g>
<g
   id="g4122">
</g>
<g
   id="g4124">
</g>
<g
   id="g4126">
</g>
<g
   id="g4128">
</g>
<g
   id="g4130">
</g>
<g
   id="g4132">
</g>
<g
   id="g4134">
</g>
<g
   id="g4136">
</g>
<g
   id="g4138">
</g>
<g
   id="g4140">
</g>
<g
   id="g4142">
</g>
<g
   id="g4144">
</g>
<g
   id="g4146">
</g>
<g
   id="g4148">
</g>
<path
   d="M679.8,384.3c0-0.1,0-0.1,0-0.2c0,0,0,0,0,0c0,0,0,0,0,0c0-0.1-0.1-0.1-0.1-0.2c0,0,0,0,0,0c0,0-0.1-0.1-0.1-0.1  c0,0,0,0,0,0c-0.1,0-0.1-0.1-0.2-0.1c0,0,0,0,0,0c-0.1,0-0.1,0-0.2,0h-5.3c-0.4,0-0.8,0.3-0.8,0.8c0,0.4,0.3,0.8,0.8,0.8h3.5  l-4.5,4.5c-1.2-1-2.7-1.5-4.2-1.5c-3.7,0-6.8,3-6.8,6.8s3,6.8,6.8,6.8c3.7,0,6.8-3,6.8-6.8c0-1.6-0.5-3-1.5-4.2l4.5-4.5v3.5  c0,0.4,0.3,0.8,0.8,0.8s0.8-0.3,0.8-0.8L679.8,384.3C679.9,384.4,679.8,384.4,679.8,384.3C679.8,384.4,679.8,384.3,679.8,384.3z   M668.5,400.3c-2.9,0-5.3-2.4-5.3-5.3s2.4-5.3,5.3-5.3c1.4,0,2.7,0.5,3.7,1.5c1,1,1.5,2.3,1.5,3.7  C673.8,397.9,671.4,400.3,668.5,400.3z"
   id="path4150" />
<ellipse
   class="st1"
   cx="668.6"
   cy="410.5"
   rx="3.7"
   ry="4.9"
   id="ellipse4152" />
<g
   id="g4158">
	<path
   d="M671,440.6h-4.5c-1.7,0-3.3-2-3.6-4.5l-1.6-16.2c-0.2-2.4,1.5-4.5,4.1-4.5h6.4c2.4,0,4.3,2,4.2,4.5l-1.4,16.2   C674.3,438.6,672.8,440.6,671,440.6z"
   id="path4154" />
	<path
   class="st2"
   d="M671,440.6h-4.5c-1.7,0-3.3-2-3.6-4.5l-1.6-16.2c-0.2-2.4,1.5-4.5,4.1-4.5h6.4c2.4,0,4.3,2,4.2,4.5l-1.4,16.2   C674.3,438.6,672.8,440.6,671,440.6z"
   id="path4156" />
</g>
<g
   id="g4164">
	<path
   d="M665.7,470.8h-0.6c-0.6,0-1.1-0.7-1.1-1.6l-0.7-31.7c0-0.9,0.7-1.6,1.6-1.6h0.9c0.9,0,1.6,0.7,1.6,1.6l-0.6,31.7   C666.8,470.1,666.3,470.8,665.7,470.8z"
   id="path4160" />
	<path
   class="st2"
   d="M665.7,470.8h-0.6c-0.6,0-1.1-0.7-1.1-1.6l-0.7-31.7c0-0.9,0.7-1.6,1.6-1.6h0.9c0.9,0,1.6,0.7,1.6,1.6   l-0.6,31.7C666.8,470.1,666.3,470.8,665.7,470.8z"
   id="path4162" />
</g>
<g
   id="g4170">
	<path
   d="M672.2,470.8h-0.6c-0.6,0-1.1-0.7-1.1-1.6l-0.7-31.7c0-0.9,0.7-1.6,1.6-1.6h0.9c0.9,0,1.6,0.7,1.6,1.6l-0.6,31.7   C673.3,470.1,672.8,470.8,672.2,470.8z"
   id="path4166" />
	<path
   class="st2"
   d="M672.2,470.8h-0.6c-0.6,0-1.1-0.7-1.1-1.6l-0.7-31.7c0-0.9,0.7-1.6,1.6-1.6h0.9c0.9,0,1.6,0.7,1.6,1.6   l-0.6,31.7C673.3,470.1,672.8,470.8,672.2,470.8z"
   id="path4168" />
</g>
<g
   id="g4174">
	<polygon
   class="st8"
   points="668,446.5 662.8,446.5 661.6,435.8 669,435.8  "
   id="polygon4172" />
</g>
<g
   id="g4186">
	<polyline
   class="st8"
   points="674.6,446.5 669.4,446.5 668.2,435.8 675.6,435.8  "
   id="polyline4176" />
	<path
   class="st4"
   d="M669.4,445.5"
   id="path4178" />
	<path
   class="st4"
   d="M674.6,445.5"
   id="path4180" />
	<path
   class="st4"
   d="M675.6,435.8"
   id="path4182" />
	<path
   class="st4"
   d="M668.2,435.8"
   id="path4184" />
</g>
<path
   class="st1"
   d="M659.9,442.3L659.9,442.3c-1-0.2-1.6-1-1.5-1.9l3-21.8c0.2-0.9,1-1.5,1.9-1.4h0.1c0.9,0.2,1.5,1,1.4,1.9  l-3,21.8C661.6,441.8,660.8,442.4,659.9,442.3z"
   id="path4188" />
<path
   class="st1"
   d="M677.4,442.3L677.4,442.3c1-0.2,1.6-1,1.5-1.9l-3-21.8c-0.2-0.9-1-1.5-1.9-1.4h-0.1c-0.9,0.2-1.5,1-1.4,1.9  l3,21.8C675.6,441.8,676.5,442.4,677.4,442.3z"
   id="path4190" />
<rect
   x="311.2"
   y="591.9"
   class="st5"
   width="16.5"
   height="18"
   id="rect4192" />
<text
   transform="matrix(1 0 0 1 315.3291 602.6797)"
   class="st6 st10"
   id="text4194">2</text>

<rect
   x="339.1"
   y="591.9"
   class="st5"
   width="16.5"
   height="18"
   id="rect4196" />
<text
   transform="matrix(1 0 0 1 343.2291 602.6797)"
   class="st6 st10"
   id="text4198">3</text>

<rect
   x="364.1"
   y="591.9"
   class="st5"
   width="16.5"
   height="18"
   id="rect4200" />
<text
   transform="matrix(1 0 0 1 368.1599 602.6797)"
   class="st6 st10"
   id="text4202">4</text>

<rect
   x="392"
   y="591.9"
   class="st5"
   width="16.5"
   height="18"
   id="rect4204" />
<text
   transform="matrix(1 0 0 1 396.0599 602.6797)"
   class="st6 st10"
   id="text4206">5</text>

<rect
   x="419.7"
   y="591.9"
   class="st5"
   width="16.5"
   height="18"
   id="rect4208" />
<text
   transform="matrix(1 0 0 1 423.7829 602.6797)"
   class="st6 st10"
   id="text4210">6</text>

<rect
   x="447.6"
   y="591.9"
   class="st5"
   width="16.5"
   height="18"
   id="rect4212" />
<text
   transform="matrix(1 0 0 1 451.6829 602.6797)"
   class="st6 st10"
   id="text4214">7</text>

<rect
   x="472.5"
   y="591.9"
   class="st5"
   width="16.5"
   height="18"
   id="rect4216" />
<text
   transform="matrix(1 0 0 1 476.6137 602.6797)"
   class="st6 st10"
   id="text4218">8</text>

<rect
   x="500.4"
   y="591.9"
   class="st5"
   width="16.5"
   height="18"
   id="rect4220" />
<text
   transform="matrix(1 0 0 1 504.5137 602.6797)"
   class="st6 st10"
   id="text4222">9</text>

<rect
   x="554.2"
   y="591.9"
   class="st5"
   width="16.5"
   height="18"
   id="rect4224" />
<text
   transform="matrix(1 0 0 1 558.2826 602.6797)"
   class="st6 st10"
   id="text4226">1</text>

<rect
   x="572.2"
   y="591.9"
   class="st5"
   width="33.2"
   height="18"
   id="rect4228" />
<text
   transform="matrix(1 0 0 1 580.493 602.6797)"
   class="st6 st10"
   id="text4230">12</text>

<rect
   x="625.3"
   y="591.9"
   class="st5"
   width="33.2"
   height="18"
   id="rect4232" />
<text
   transform="matrix(1 0 0 1 633.5889 602.6797)"
   class="st6 st10"
   id="text4234">14</text>

<rect
   x="653.2"
   y="591.9"
   class="st5"
   width="33.2"
   height="18"
   id="rect4236" />
<text
   transform="matrix(1 0 0 1 661.4124 602.6797)"
   class="st6 st10"
   id="text4238">15</text>

<rect
   x="679.7"
   y="591.9"
   class="st5"
   width="33.2"
   height="18"
   id="rect4240" />
<text
   transform="matrix(1 0 0 1 687.9191 602.6797)"
   class="st6 st10"
   id="text4242">16</text>

<rect
   x="705"
   y="591.9"
   class="st5"
   width="33.2"
   height="18"
   id="rect4244" />
<text
   transform="matrix(1 0 0 1 713.2739 602.6797)"
   class="st6 st10"
   id="text4246">17</text>

<rect
   x="731.5"
   y="591.9"
   class="st5"
   width="33.2"
   height="18"
   id="rect4248" />
<text
   transform="matrix(1 0 0 1 739.7806 602.6797)"
   class="st6 st10"
   id="text4250">18</text>

<path
   d="M706.9,330.9c0-0.1,0-0.1,0-0.2c0,0,0,0,0,0c0,0,0,0,0,0c0-0.1-0.1-0.1-0.1-0.2c0,0,0,0,0,0c0,0-0.1-0.1-0.1-0.1  c0,0,0,0,0,0c-0.1,0-0.1-0.1-0.2-0.1c0,0,0,0,0,0c-0.1,0-0.1,0-0.2,0h-5.2c-0.4,0-0.7,0.3-0.7,0.7s0.3,0.7,0.7,0.7h3.4l-4.5,4.5  c-1.2-1-2.7-1.5-4.2-1.5c-3.7,0-6.7,3-6.7,6.7c0,3.7,3,6.7,6.7,6.7s6.7-3,6.7-6.7c0-1.5-0.5-3-1.5-4.2l4.5-4.5v3.4  c0,0.4,0.3,0.7,0.7,0.7s0.7-0.3,0.7-0.7L706.9,330.9C706.9,331,706.9,331,706.9,330.9C706.9,331,706.9,330.9,706.9,330.9z   M695.6,346.8c-2.9,0-5.2-2.4-5.2-5.2s2.4-5.2,5.2-5.2c1.4,0,2.7,0.5,3.7,1.5c1,1,1.5,2.3,1.5,3.7  C700.9,344.4,698.5,346.8,695.6,346.8z"
   id="path4252" />
<ellipse
   class="st1"
   cx="695.7"
   cy="356.9"
   rx="3.6"
   ry="4.9"
   id="ellipse4254" />
<g
   id="g4260">
	<path
   d="M698.1,386.9h-4.5c-1.7,0-3.3-2-3.6-4.5l-1.6-16.1c-0.2-2.4,1.5-4.5,4-4.5h6.4c2.4,0,4.3,2,4.1,4.5l-1.4,16.1   C701.4,384.8,699.9,386.9,698.1,386.9z"
   id="path4256" />
	<path
   class="st2"
   d="M698.1,386.9h-4.5c-1.7,0-3.3-2-3.6-4.5l-1.6-16.1c-0.2-2.4,1.5-4.5,4-4.5h6.4c2.4,0,4.3,2,4.1,4.5l-1.4,16.1   C701.4,384.8,699.9,386.9,698.1,386.9z"
   id="path4258" />
</g>
<g
   id="g4266">
	<path
   d="M692.8,416.8h-0.6c-0.6,0-1.1-0.7-1.1-1.6l-0.6-31.5c0-0.9,0.7-1.6,1.6-1.6h0.9c0.9,0,1.6,0.7,1.6,1.6l-0.6,31.5   C693.9,416.1,693.4,416.8,692.8,416.8z"
   id="path4262" />
	<path
   class="st2"
   d="M692.8,416.8h-0.6c-0.6,0-1.1-0.7-1.1-1.6l-0.6-31.5c0-0.9,0.7-1.6,1.6-1.6h0.9c0.9,0,1.6,0.7,1.6,1.6   l-0.6,31.5C693.9,416.1,693.4,416.8,692.8,416.8z"
   id="path4264" />
</g>
<g
   id="g4272">
	<path
   d="M699.3,416.8h-0.6c-0.6,0-1.1-0.7-1.1-1.6l-0.6-31.5c0-0.9,0.7-1.6,1.6-1.6h0.9c0.9,0,1.6,0.7,1.6,1.6l-0.6,31.5   C700.3,416.1,699.9,416.8,699.3,416.8z"
   id="path4268" />
	<path
   class="st2"
   d="M699.3,416.8h-0.6c-0.6,0-1.1-0.7-1.1-1.6l-0.6-31.5c0-0.9,0.7-1.6,1.6-1.6h0.9c0.9,0,1.6,0.7,1.6,1.6   l-0.6,31.5C700.3,416.1,699.9,416.8,699.3,416.8z"
   id="path4270" />
</g>
<g
   id="g4276">
	<polygon
   class="st3"
   points="695.1,392.7 689.9,392.7 688.7,382.1 696.1,382.1  "
   id="polygon4274" />
</g>
<g
   id="g4288">
	<polyline
   class="st3"
   points="701.7,392.7 696.5,392.7 695.3,382.1 702.6,382.1  "
   id="polyline4278" />
	<path
   class="st4"
   d="M696.5,391.7"
   id="path4280" />
	<path
   class="st4"
   d="M701.6,391.7"
   id="path4282" />
	<path
   class="st4"
   d="M702.6,382"
   id="path4284" />
	<path
   class="st4"
   d="M695.3,382"
   id="path4286" />
</g>
<path
   class="st1"
   d="M687.1,388.5L687.1,388.5c-1-0.2-1.6-1-1.5-1.9l3-21.7c0.2-0.9,1-1.5,1.9-1.4h0.1c0.9,0.2,1.5,1,1.4,1.9  l-3,21.7C688.8,388,688,388.6,687.1,388.5z"
   id="path4290" />
<path
   class="st1"
   d="M704.4,388.5L704.4,388.5c1-0.2,1.6-1,1.5-1.9l-3-21.7c-0.2-0.9-1-1.5-1.9-1.4h-0.1c-0.9,0.2-1.5,1-1.4,1.9  l3,21.7C702.7,388,703.5,388.6,704.4,388.5z"
   id="path4292" />
<ellipse
   class="st1"
   cx="722.3"
   cy="362"
   rx="3.7"
   ry="4.9"
   id="ellipse4294" />
<g
   id="g4300">
	<path
   d="M724.7,392h-4.5c-1.7,0-3.3-2-3.6-4.5l-1.6-16.2c-0.2-2.4,1.5-4.5,4.1-4.5h6.4c2.4,0,4.3,2,4.1,4.5l-1.4,16.2   C728,390,726.5,392,724.7,392z"
   id="path4296" />
	<path
   class="st2"
   d="M724.7,392h-4.5c-1.7,0-3.3-2-3.6-4.5l-1.6-16.2c-0.2-2.4,1.5-4.5,4.1-4.5h6.4c2.4,0,4.3,2,4.1,4.5l-1.4,16.2   C728,390,726.5,392,724.7,392z"
   id="path4298" />
</g>
<g
   id="g4306">
	<path
   d="M719.4,422.1h-0.6c-0.6,0-1.1-0.7-1.1-1.6l-0.6-31.6c0-0.9,0.7-1.6,1.6-1.6h0.9c0.9,0,1.6,0.7,1.6,1.6l-0.6,31.6   C720.5,421.4,720,422.1,719.4,422.1z"
   id="path4302" />
	<path
   class="st2"
   d="M719.4,422.1h-0.6c-0.6,0-1.1-0.7-1.1-1.6l-0.6-31.6c0-0.9,0.7-1.6,1.6-1.6h0.9c0.9,0,1.6,0.7,1.6,1.6   l-0.6,31.6C720.5,421.4,720,422.1,719.4,422.1z"
   id="path4304" />
</g>
<g
   id="g4312">
	<path
   d="M725.9,422.1h-0.6c-0.6,0-1.1-0.7-1.1-1.6l-0.6-31.6c0-0.9,0.7-1.6,1.6-1.6h0.9c0.9,0,1.6,0.7,1.6,1.6l-0.6,31.6   C727,421.4,726.5,422.1,725.9,422.1z"
   id="path4308" />
	<path
   class="st2"
   d="M725.9,422.1h-0.6c-0.6,0-1.1-0.7-1.1-1.6l-0.6-31.6c0-0.9,0.7-1.6,1.6-1.6h0.9c0.9,0,1.6,0.7,1.6,1.6   l-0.6,31.6C727,421.4,726.5,422.1,725.9,422.1z"
   id="path4310" />
</g>
<g
   id="g4316">
	<polygon
   class="st3"
   points="721.7,397.9 716.5,397.9 715.3,387.2 722.7,387.2  "
   id="polygon4314" />
</g>
<g
   id="g4328">
	<polyline
   class="st3"
   points="728.3,397.9 723.1,397.9 721.9,387.2 729.3,387.2  "
   id="polyline4318" />
	<path
   class="st4"
   d="M723.1,396.9"
   id="path4320" />
	<path
   class="st4"
   d="M728.3,396.9"
   id="path4322" />
	<path
   class="st4"
   d="M729.2,387.2"
   id="path4324" />
	<path
   class="st4"
   d="M721.9,387.2"
   id="path4326" />
</g>
<path
   class="st1"
   d="M713.6,393.7L713.6,393.7c-1-0.2-1.6-1-1.5-1.9l3-21.8c0.2-0.9,1-1.5,1.9-1.4h0.1c0.9,0.2,1.5,1,1.4,1.9  l-3,21.8C715.4,393.2,714.5,393.7,713.6,393.7z"
   id="path4330" />
<path
   class="st1"
   d="M731,393.7L731,393.7c1-0.2,1.6-1,1.5-1.9l-3-21.8c-0.2-0.9-1-1.5-1.9-1.4h-0.1c-0.9,0.2-1.5,1-1.4,1.9l3,21.8  C729.3,393.2,730.1,393.7,731,393.7z"
   id="path4332" />
<g
   id="g4338">
	<g
   id="g4336">
		<path
   d="M729,337.8c-0.1-0.4-0.2-0.8-0.4-1.2c-0.2-0.4-0.4-0.8-0.6-1.2c-0.5-0.7-1.1-1.4-1.8-1.9c-0.7-0.5-1.5-0.8-2.4-1    c-0.9-0.2-1.7-0.2-2.6,0c-0.9,0.2-1.7,0.5-2.4,1c-0.7,0.5-1.4,1.1-1.8,1.8c-0.5,0.7-0.8,1.5-1,2.4c-0.2,0.9-0.2,1.7,0,2.6    c0.2,0.9,0.5,1.7,1,2.4c0.6,1,1.5,1.7,2.6,2.3c0.6,0.3,1.3,0.5,2,0.7c0.1,0,0.2,0.1,0.2,0.3v1.9c0,0.1-0.1,0.3-0.3,0.3h-2.8    c-0.2,0-0.4,0.1-0.5,0.2c-0.3,0.3-0.3,0.7,0,1l0,0c0.1,0.1,0.1,0.1,0.2,0.2c0.1,0,0.2,0.1,0.3,0.1h2.8c0.1,0,0.1,0,0.2,0.1    c0,0,0.1,0.1,0.1,0.2v2.8c0,0.1,0,0.2,0.1,0.3c0,0.1,0.1,0.2,0.2,0.2c0.1,0.1,0.1,0.1,0.2,0.2c0.2,0.1,0.4,0.1,0.5,0    c0.1,0,0.2-0.1,0.2-0.2c0.1-0.1,0.1-0.1,0.2-0.2c0-0.1,0.1-0.2,0.1-0.3v-2.8c0-0.1,0-0.1,0.1-0.2c0,0,0.1-0.1,0.2-0.1h2.8    c0.1,0,0.2,0,0.3-0.1c0.1,0,0.2-0.1,0.2-0.2c0.1-0.1,0.1-0.1,0.2-0.2c0.1-0.2,0.1-0.4,0-0.5c0,0,0-0.1-0.1-0.1l-0.1-0.1    c-0.1-0.1-0.3-0.2-0.5-0.2h-2.8c-0.1,0-0.1,0-0.2-0.1c0,0-0.1-0.1-0.1-0.2v-1.8v-0.1c0-0.1,0-0.1,0.1-0.2c0,0,0.1-0.1,0.2-0.1    c0.7-0.1,1.4-0.3,2-0.6c1.4-0.7,2.6-1.9,3.2-3.4c0.2-0.4,0.3-0.8,0.4-1.2C729.2,339.5,729.2,338.6,729,337.8z M727.6,340.1    L727.6,340.1c-0.6,2.9-3.4,4.7-6.2,4.1s-4.7-3.4-4.1-6.2c0.6-2.9,3.4-4.7,6.2-4.1c2.5,0.5,4.2,2.7,4.2,5.2    C727.7,339.4,727.7,339.8,727.6,340.1z"
   id="path4334" />
	</g>
</g>
<g
   id="g4340">
</g>
<g
   id="g4342">
</g>
<g
   id="g4344">
</g>
<g
   id="g4346">
</g>
<g
   id="g4348">
</g>
<g
   id="g4350">
</g>
<g
   id="g4352">
</g>
<g
   id="g4354">
</g>
<g
   id="g4356">
</g>
<g
   id="g4358">
</g>
<g
   id="g4360">
</g>
<g
   id="g4362">
</g>
<g
   id="g4364">
</g>
<g
   id="g4366">
</g>
<g
   id="g4368">
</g>
<path
   d="M760.5,330.1c0-0.1,0-0.1,0-0.2c0,0,0,0,0,0c0,0,0,0,0,0c0-0.1-0.1-0.1-0.1-0.2c0,0,0,0,0,0c0,0-0.1-0.1-0.1-0.1  c0,0,0,0,0,0c-0.1,0-0.1-0.1-0.2-0.1c0,0,0,0,0,0c-0.1,0-0.1,0-0.2,0h-5.3c-0.4,0-0.8,0.3-0.8,0.8s0.3,0.8,0.8,0.8h3.5l-4.5,4.5  c-1.2-1-2.7-1.5-4.2-1.5c-3.7,0-6.8,3-6.8,6.8c0,3.7,3,6.8,6.8,6.8c3.7,0,6.8-3,6.8-6.8c0-1.6-0.5-3-1.5-4.2l4.5-4.5v3.5  c0,0.4,0.3,0.8,0.8,0.8s0.8-0.3,0.8-0.8L760.5,330.1C760.5,330.2,760.5,330.2,760.5,330.1C760.5,330.1,760.5,330.1,760.5,330.1z   M749.2,346c-2.9,0-5.3-2.4-5.3-5.3s2.4-5.3,5.3-5.3c1.4,0,2.7,0.5,3.7,1.5c1,1,1.5,2.3,1.5,3.7C754.5,343.7,752.1,346,749.2,346z"
   id="path4370" />
<ellipse
   class="st1"
   cx="749.3"
   cy="356.3"
   rx="3.7"
   ry="4.9"
   id="ellipse4372" />
<g
   id="g4378">
	<path
   d="M751.7,386.4h-4.5c-1.7,0-3.3-2-3.6-4.5l-1.6-16.2c-0.2-2.4,1.5-4.5,4.1-4.5h6.4c2.4,0,4.3,2,4.2,4.5l-1.4,16.2   C755,384.4,753.5,386.4,751.7,386.4z"
   id="path4374" />
	<path
   class="st2"
   d="M751.7,386.4h-4.5c-1.7,0-3.3-2-3.6-4.5l-1.6-16.2c-0.2-2.4,1.5-4.5,4.1-4.5h6.4c2.4,0,4.3,2,4.2,4.5   l-1.4,16.2C755,384.4,753.5,386.4,751.7,386.4z"
   id="path4376" />
</g>
<g
   id="g4384">
	<path
   d="M746.4,416.6h-0.6c-0.6,0-1.1-0.7-1.1-1.6l-0.7-31.7c0-0.9,0.7-1.6,1.6-1.6h0.9c0.9,0,1.6,0.7,1.6,1.6l-0.6,31.7   C747.4,415.8,746.9,416.6,746.4,416.6z"
   id="path4380" />
	<path
   class="st2"
   d="M746.4,416.6h-0.6c-0.6,0-1.1-0.7-1.1-1.6l-0.7-31.7c0-0.9,0.7-1.6,1.6-1.6h0.9c0.9,0,1.6,0.7,1.6,1.6   l-0.6,31.7C747.4,415.8,746.9,416.6,746.4,416.6z"
   id="path4382" />
</g>
<g
   id="g4390">
	<path
   d="M752.9,416.6h-0.6c-0.6,0-1.1-0.7-1.1-1.6l-0.7-31.7c0-0.9,0.7-1.6,1.6-1.6h0.9c0.9,0,1.6,0.7,1.6,1.6l-0.6,31.7   C754,415.8,753.5,416.6,752.9,416.6z"
   id="path4386" />
	<path
   class="st2"
   d="M752.9,416.6h-0.6c-0.6,0-1.1-0.7-1.1-1.6l-0.7-31.7c0-0.9,0.7-1.6,1.6-1.6h0.9c0.9,0,1.6,0.7,1.6,1.6   l-0.6,31.7C754,415.8,753.5,416.6,752.9,416.6z"
   id="path4388" />
</g>
<g
   id="g4394">
	<polygon
   class="st8"
   points="748.7,392.3 743.4,392.3 742.3,381.6 749.7,381.6  "
   id="polygon4392" />
</g>
<g
   id="g4406">
	<polyline
   class="st8"
   points="755.3,392.3 750,392.3 748.9,381.6 756.3,381.6  "
   id="polyline4396" />
	<path
   class="st4"
   d="M750,391.3"
   id="path4398" />
	<path
   class="st4"
   d="M755.3,391.3"
   id="path4400" />
	<path
   class="st4"
   d="M756.2,381.5"
   id="path4402" />
	<path
   class="st4"
   d="M748.9,381.5"
   id="path4404" />
</g>
<path
   class="st1"
   d="M740.6,388.1L740.6,388.1c-1-0.2-1.6-1-1.5-1.9l3-21.8c0.2-0.9,1-1.5,1.9-1.4h0.1c0.9,0.2,1.5,1,1.4,1.9  l-3,21.8C742.3,387.6,741.5,388.1,740.6,388.1z"
   id="path4408" />
<path
   class="st1"
   d="M758,388.1L758,388.1c1-0.2,1.6-1,1.5-1.9l-3-21.8c-0.2-0.9-1-1.5-1.9-1.4h-0.1c-0.9,0.2-1.5,1-1.4,1.9l3,21.8  C756.3,387.6,757.1,388.1,758,388.1z"
   id="path4410" />
<rect
   x="523.8"
   y="591.9"
   class="st5"
   width="19.7"
   height="18"
   id="rect4412" />
<text
   transform="matrix(1 0 0 1 525.2767 602.6797)"
   class="st6 st10"
   id="text4414">10</text>

<rect
   x="598.7"
   y="591.9"
   class="st5"
   width="33.2"
   height="18"
   id="rect4416" />
<text
   transform="matrix(1 0 0 1 606.993 602.6797)"
   class="st6 st10"
   id="text4418">13</text>

<path
   d="M544.2,501.5c0-0.1,0-0.1,0-0.2c0,0,0,0,0,0c0,0,0,0,0,0c0-0.1-0.1-0.1-0.1-0.2c0,0,0,0,0,0c0,0-0.1-0.1-0.1-0.1  c0,0,0,0,0,0c-0.1,0-0.1-0.1-0.2-0.1c0,0,0,0,0,0c-0.1,0-0.1,0-0.2,0h-5.2c-0.4,0-0.7,0.3-0.7,0.7s0.3,0.7,0.7,0.7h3.4l-4.5,4.5  c-1.2-1-2.7-1.5-4.2-1.5c-3.7,0-6.7,3-6.7,6.7c0,3.7,3,6.7,6.7,6.7c3.7,0,6.7-3,6.7-6.7c0-1.5-0.5-3-1.5-4.2l4.5-4.5v3.4  c0,0.4,0.3,0.7,0.7,0.7s0.7-0.3,0.7-0.7L544.2,501.5C544.3,501.5,544.3,501.5,544.2,501.5C544.3,501.5,544.3,501.5,544.2,501.5z   M533,517.3c-2.9,0-5.2-2.4-5.2-5.2c0-2.9,2.4-5.2,5.2-5.2c1.4,0,2.7,0.5,3.7,1.5c1,1,1.5,2.3,1.5,3.7  C538.3,514.9,535.9,517.3,533,517.3z"
   id="path4420" />
<ellipse
   class="st1"
   cx="533.1"
   cy="527.5"
   rx="3.6"
   ry="4.9"
   id="ellipse4422" />
<g
   id="g4428">
	<path
   d="M535.5,557.4H531c-1.7,0-3.3-2-3.6-4.5l-1.6-16.1c-0.2-2.4,1.5-4.5,4-4.5h6.4c2.4,0,4.3,2,4.1,4.5L539,553   C538.8,555.4,537.2,557.4,535.5,557.4z"
   id="path4424" />
	<path
   class="st2"
   d="M535.5,557.4H531c-1.7,0-3.3-2-3.6-4.5l-1.6-16.1c-0.2-2.4,1.5-4.5,4-4.5h6.4c2.4,0,4.3,2,4.1,4.5L539,553   C538.8,555.4,537.2,557.4,535.5,557.4z"
   id="path4426" />
</g>
<g
   id="g4434">
	<path
   d="M530.2,587.4h-0.6c-0.6,0-1.1-0.7-1.1-1.6l-0.6-31.5c0-0.9,0.7-1.6,1.6-1.6h0.9c0.9,0,1.6,0.7,1.6,1.6l-0.6,31.5   C531.3,586.6,530.8,587.4,530.2,587.4z"
   id="path4430" />
	<path
   class="st2"
   d="M530.2,587.4h-0.6c-0.6,0-1.1-0.7-1.1-1.6l-0.6-31.5c0-0.9,0.7-1.6,1.6-1.6h0.9c0.9,0,1.6,0.7,1.6,1.6   l-0.6,31.5C531.3,586.6,530.8,587.4,530.2,587.4z"
   id="path4432" />
</g>
<g
   id="g4440">
	<path
   d="M536.7,587.4h-0.6c-0.6,0-1.1-0.7-1.1-1.6l-0.6-31.5c0-0.9,0.7-1.6,1.6-1.6h0.9c0.9,0,1.6,0.7,1.6,1.6l-0.6,31.5   C537.7,586.6,537.2,587.4,536.7,587.4z"
   id="path4436" />
	<path
   class="st2"
   d="M536.7,587.4h-0.6c-0.6,0-1.1-0.7-1.1-1.6l-0.6-31.5c0-0.9,0.7-1.6,1.6-1.6h0.9c0.9,0,1.6,0.7,1.6,1.6   l-0.6,31.5C537.7,586.6,537.2,587.4,536.7,587.4z"
   id="path4438" />
</g>
<g
   id="g4444">
	<polygon
   class="st3"
   points="532.5,563.3 527.3,563.3 526.1,552.6 533.5,552.6  "
   id="polygon4442" />
</g>
<g
   id="g4456">
	<polyline
   class="st3"
   points="539.1,563.3 533.9,563.3 532.7,552.6 540,552.6  "
   id="polyline4446" />
	<path
   class="st4"
   d="M533.9,562.3"
   id="path4448" />
	<path
   class="st4"
   d="M539,562.3"
   id="path4450" />
	<path
   class="st4"
   d="M540,552.6"
   id="path4452" />
	<path
   class="st4"
   d="M532.7,552.6"
   id="path4454" />
</g>
<path
   class="st1"
   d="M524.5,559L524.5,559c-1-0.2-1.6-1-1.5-1.9l3-21.7c0.2-0.9,1-1.5,1.9-1.4h0.1c0.9,0.2,1.5,1,1.4,1.9l-3,21.7  C526.2,558.5,525.4,559.1,524.5,559z"
   id="path4458" />
<path
   class="st1"
   d="M541.8,559L541.8,559c1-0.2,1.6-1,1.5-1.9l-3-21.7c-0.2-0.9-1-1.5-1.9-1.4h-0.1c-0.9,0.2-1.5,1-1.4,1.9l3,21.7  C540.1,558.5,540.9,559.1,541.8,559z"
   id="path4460" />

<g
   id="g5132"
   style="opacity:0.7"
   transform="translate(0.40677966)"><line
     style="opacity:1;fill:none;stroke:#ff0000;stroke-width:2;stroke-miterlimit:10"
     id="line4462"
     y2="605.40002"
     x2="625.29999"
     y1="589.40002"
     x1="605.40002"
     class="st11" /><line
     style="opacity:1;fill:none;stroke:#ff0000;stroke-width:2;stroke-miterlimit:10"
     id="line4464"
     y2="605.29999"
     x2="606.40002"
     y1="589.29999"
     x1="626.40002"
     class="st11" /></g>
<g
   id="g4484">
	<line
   class="st12"
   x1="302.6"
   y1="587.6"
   x2="302.9"
   y2="475.9"
   id="line4466" />
	<g
   id="g4482">
		<g
   id="g4478">
			<line
   class="st12"
   x1="302.6"
   y1="587.5"
   x2="296.6"
   y2="587.5"
   id="line4468" />
			<line
   class="st12"
   x1="302.7"
   y1="559.6"
   x2="296.7"
   y2="559.6"
   id="line4470" />
			<line
   class="st12"
   x1="302.8"
   y1="531.7"
   x2="296.8"
   y2="531.7"
   id="line4472" />
			<line
   class="st12"
   x1="302.9"
   y1="503.8"
   x2="296.9"
   y2="503.8"
   id="line4474" />
			<line
   class="st12"
   x1="302.9"
   y1="475.9"
   x2="297"
   y2="475.9"
   id="line4476" />
		</g>
		<g
   id="g4480">
		</g>
	</g>
</g>
<g
   id="g4504">
	<line
   class="st12"
   x1="302.7"
   y1="503.7"
   x2="303"
   y2="392.1"
   id="line4486" />
	<g
   id="g4502">
		<g
   id="g4498">
			<line
   class="st12"
   x1="302.7"
   y1="503.6"
   x2="296.7"
   y2="503.6"
   id="line4488" />
			<line
   class="st12"
   x1="302.8"
   y1="475.7"
   x2="296.8"
   y2="475.7"
   id="line4490" />
			<line
   class="st12"
   x1="302.9"
   y1="447.8"
   x2="296.9"
   y2="447.8"
   id="line4492" />
			<line
   class="st12"
   x1="303"
   y1="420"
   x2="297"
   y2="419.9"
   id="line4494" />
			<line
   class="st12"
   x1="303"
   y1="392.1"
   x2="297.1"
   y2="392"
   id="line4496" />
		</g>
		<g
   id="g4500">
		</g>
	</g>
</g>
<g
   id="g4524">
	<line
   class="st12"
   x1="303"
   y1="392.1"
   x2="303.4"
   y2="280.4"
   id="line4506" />
	<g
   id="g4522">
		<g
   id="g4518">
			<line
   class="st12"
   x1="303"
   y1="392"
   x2="297.1"
   y2="392"
   id="line4508" />
			<line
   class="st12"
   x1="303.1"
   y1="364.1"
   x2="297.1"
   y2="364.1"
   id="line4510" />
			<line
   class="st12"
   x1="303.2"
   y1="336.2"
   x2="297.2"
   y2="336.2"
   id="line4512" />
			<line
   class="st12"
   x1="303.3"
   y1="308.3"
   x2="297.3"
   y2="308.3"
   id="line4514" />
			<line
   class="st12"
   x1="303.4"
   y1="280.4"
   x2="297.4"
   y2="280.4"
   id="line4516" />
		</g>
		<g
   id="g4520">
		</g>
	</g>
</g>
<rect
   x="280.6"
   y="583.4"
   class="st5"
   width="16.5"
   height="18"
   id="rect4526" />
<text
   transform="matrix(1 0 0 1 285.4767 592.0131)"
   class="st13 st7"
   id="text4528">0</text>

<rect
   x="277.6"
   y="554.6"
   class="st5"
   width="19.1"
   height="18"
   id="rect4530" />
<text
   transform="matrix(1 0 0 1 280.424 563.2296)"
   class="st13 st7"
   id="text4532">30</text>

<rect
   x="277.6"
   y="526.7"
   class="st5"
   width="19.1"
   height="18"
   id="rect4534" />
<text
   transform="matrix(1 0 0 1 280.424 535.3779)"
   class="st13 st7"
   id="text4536">60</text>

<rect
   x="277.6"
   y="498.9"
   class="st5"
   width="19.1"
   height="18"
   id="rect4538" />
<text
   transform="matrix(1 0 0 1 280.424 507.5263)"
   class="st13 st7"
   id="text4540">90</text>

<rect
   x="274.3"
   y="471"
   class="st5"
   width="22.4"
   height="18"
   id="rect4542" />
<text
   transform="matrix(1 0 0 1 275.5242 479.6747)"
   class="st13 st7"
   id="text4544">120</text>

<rect
   x="274.3"
   y="442.8"
   class="st5"
   width="22.4"
   height="18"
   id="rect4546" />
<text
   transform="matrix(1 0 0 1 275.5242 451.4588)"
   class="st13 st7"
   id="text4548">150</text>

<rect
   x="274.3"
   y="414.9"
   class="st5"
   width="22.4"
   height="18"
   id="rect4550" />
<text
   transform="matrix(1 0 0 1 275.5242 423.562)"
   class="st13 st7"
   id="text4552">180</text>

<rect
   x="274.3"
   y="387.6"
   class="st5"
   width="22.4"
   height="18"
   id="rect4554" />
<text
   transform="matrix(1 0 0 1 275.5242 396.1808)"
   class="st13 st7"
   id="text4556">210</text>

<rect
   x="274.3"
   y="360.2"
   class="st5"
   width="22.4"
   height="18"
   id="rect4558" />
<text
   transform="matrix(1 0 0 1 275.5242 368.7997)"
   class="st13 st7"
   id="text4560">240</text>

<rect
   x="274.3"
   y="332"
   class="st5"
   width="22.4"
   height="18"
   id="rect4562" />
<text
   transform="matrix(1 0 0 1 275.5242 340.5838)"
   class="st13 st7"
   id="text4564">270</text>

<rect
   x="274.3"
   y="304.1"
   class="st5"
   width="22.4"
   height="18"
   id="rect4566" />
<text
   transform="matrix(1 0 0 1 275.5242 312.687)"
   class="st13 st7"
   id="text4568">300</text>

<rect
   x="274.3"
   y="276.7"
   class="st5"
   width="22.4"
   height="18"
   id="rect4570" />
<text
   transform="matrix(1 0 0 1 275.5242 285.3059)"
   class="st13 st7"
   id="text4572">330</text>

<path
   class="st14"
   d="M303.5,416.3"
   id="path4574" />
<path
   class="st14"
   d="M304.3,308.3"
   id="path4576" />
<path
   class="st14"
   d="M759,308.6"
   id="path4578" />
</svg>